<?xml version="1.0" encoding="UTF-8" standalone="no"?><!DOCTYPE svg PUBLIC "-//W3C//DTD SVG 1.1//EN" "http://www.w3.org/Graphics/SVG/1.1/DTD/svg11.dtd"><svg width="100%" height="100%" viewBox="0 0 576 48" version="1.1" xmlns="http://www.w3.org/2000/svg" xmlns:xlink="http://www.w3.org/1999/xlink" xml:space="preserve" xmlns:serif="http://www.serif.com/" style="fill-rule:evenodd;clip-rule:evenodd;stroke-linejoin:round;stroke-miterlimit:2;"><path d="M576,0l-576,0l0,48l576,0l0,-48Z" style="fill:#26272d;"/><g><path d="M185.6,20l0,8l8,0l0,-8l-8,0Z" style="fill:#f3e6e6;"/><path d="M185.6,20l0,8l8,0l0,-8l-8,0Zm0.7,0.7l6.6,0c0,-0 0,6.6 0,6.6c0,0 -6.6,0 -6.6,0c0,-0 0,-6.6 -0,-6.6Z"/><path d="M193.6,20l0,8l8,0l0,-8l-8,0Z" style="fill:#f3e6e6;"/><path d="M193.6,20l0,8l8,0l0,-8l-8,0Zm0.7,0.7l6.6,0c0,-0 0,6.6 0,6.6c0,0 -6.6,0 -6.6,0c0,-0 0,-6.6 -0,-6.6Z"/><path d="M177.6,20l0,8l8,0l0,-8l-8,0Z" style="fill:#f3e6e6;"/><path d="M177.6,20l0,8l8,0l0,-8l-8,0Zm0.7,0.7l6.6,0c0,-0 0,6.6 0,6.6c0,0 -6.6,0 -6.6,0c0,-0 0,-6.6 -0,-6.6Z"/><path d="M257.6,20l0,8l8,0l0,-8l-8,0Z" style="fill:#f3e6e6;"/><path d="M257.6,20l0,8l8,0l0,-8l-8,0Zm0.7,0.7l6.6,0c0,-0 0,6.6 0,6.6c0,0 -6.6,0 -6.6,0c0,-0 0,-6.6 -0,-6.6Z"/><path d="M249.6,20l0,8l8,0l0,-8l-8,0Z" style="fill:#f3e6e6;"/><path d="M249.6,20l0,8l8,0l0,-8l-8,0Zm0.7,0.7l6.6,0c0,-0 0,6.6 0,6.6c0,0 -6.6,0 -6.6,0c0,-0 0,-6.6 -0,-6.6Z"/><path d="M157.6,4l8,0l-0,8l-4.16,-4l-3.84,-4Z" style="fill:#f3e6e6;"/><path d="M157.6,4l8,0l-0,8l-4.16,-4l-3.84,-4Zm1.642,0.7l5.658,0c0,-0 0,5.656 0,5.656c0,-0 -2.965,-2.851 -2.965,-2.851l-2.693,-2.805Z"/><path d="M149.6,4l-8,0l-0,8l4.16,-4l3.84,-4Z" style="fill:#f3e6e6;"/><path d="M149.6,4l-8,0l-0,8l4.16,-4l3.84,-4Zm-1.642,0.7l-2.693,2.805c-0,0 -2.965,2.851 -2.965,2.851c-0,-0 -0,-5.656 -0,-5.656l5.658,0Z"/><path d="M157.6,44l8,0l-0,-8l-4.16,4l-3.84,4Z" style="fill:#f3e6e6;"/><path d="M157.6,44l8,0l-0,-8l-4.16,4l-3.84,4Zm1.642,-0.7l2.693,-2.805c0,-0 2.965,-2.851 2.965,-2.851c0,0 -0,5.656 -0,5.656l-5.658,-0Z"/><path d="M149.6,44l-8,0l-0,-8l4.16,4l3.84,4Z" style="fill:#f3e6e6;"/><path d="M149.6,44l-8,0l-0,-8l4.16,4l3.84,4Zm-1.642,-0.7l-5.658,0c-0,0 -0,-5.656 -0,-5.656c-0,0 2.965,2.851 2.965,2.851l2.693,2.805Z"/><path d="M173.6,12l-0,-8l-8,0l-0,8l8,0Z" style="fill:#f3e6e6;"/><path d="M173.6,12l-0,-8l-8,0l-0,8l8,0Zm-0.7,-0.7l-6.6,0c-0,0 -0,-6.6 -0,-6.6c-0,0 6.6,0 6.6,0c-0,0 -0,6.6 0,6.6Z"/><path d="M173.6,20l-0,-8l-8,0l-0,8l8,0Z" style="fill:#f3e6e6;"/><path d="M173.6,20l-0,-8l-8,0l-0,8l8,0Zm-0.7,-0.7l-6.6,0c-0,0 -0,-6.6 -0,-6.6c-0,0 6.6,0 6.6,0c-0,0 -0,6.6 0,6.6Z"/><path d="M173.6,44l-0,-8l-8,0l-0,8l8,0Z" style="fill:#f3e6e6;"/><path d="M173.6,44l-0,-8l-8,0l-0,8l8,0Zm-0.7,-0.7l-6.6,0c-0,0 -0,-6.6 -0,-6.6c-0,0 6.6,0 6.6,0c-0,0 -0,6.6 0,6.6Z"/><path d="M173.6,28l-0,-8l-8,0l-0,8l8,0Z" style="fill:#f3e6e6;"/><path d="M173.6,28l-0,-8l-8,0l-0,8l8,0Zm-0.7,-0.7l-6.6,0c-0,0 -0,-6.6 -0,-6.6c-0,0 6.6,0 6.6,0c-0,0 -0,6.6 0,6.6Z"/><path d="M173.6,36l-0,-8l-8,0l-0,8l8,0Z" style="fill:#f3e6e6;"/><path d="M173.6,36l-0,-8l-8,0l-0,8l8,0Zm-0.7,-0.7l-6.6,0c-0,0 -0,-6.6 -0,-6.6c-0,0 6.6,0 6.6,0c-0,0 -0,6.6 0,6.6Z"/><path d="M141.6,12l-0,-8l-8,0l-0,8l8,0Z" style="fill:#f3e6e6;"/><path d="M141.6,12l-0,-8l-8,0l-0,8l8,0Zm-0.7,-0.7l-6.6,0c-0,0 -0,-6.6 -0,-6.6c-0,0 6.6,0 6.6,0c-0,0 -0,6.6 0,6.6Z"/><path d="M141.6,20l-0,-8l-8,0l-0,8l8,0Z" style="fill:#f3e6e6;"/><path d="M141.6,20l-0,-8l-8,0l-0,8l8,0Zm-0.7,-0.7l-6.6,0c-0,0 -0,-6.6 -0,-6.6c-0,0 6.6,0 6.6,0c-0,0 -0,6.6 0,6.6Z"/><path d="M141.6,44l-0,-8l-8,0l-0,8l8,0Z" style="fill:#f3e6e6;"/><path d="M141.6,44l-0,-8l-8,0l-0,8l8,0Zm-0.7,-0.7l-6.6,0c-0,0 -0,-6.6 -0,-6.6c-0,0 6.6,0 6.6,0c-0,0 -0,6.6 0,6.6Z"/><path d="M141.6,28l-0,-8l-8,0l-0,8l8,0Z" style="fill:#f3e6e6;"/><path d="M141.6,28l-0,-8l-8,0l-0,8l8,0Zm-0.7,-0.7l-6.6,0c-0,0 -0,-6.6 -0,-6.6c-0,0 6.6,0 6.6,0c-0,0 -0,6.6 0,6.6Z"/><path d="M141.6,36l-0,-8l-8,0l-0,8l8,0Z" style="fill:#f3e6e6;"/><path d="M141.6,36l-0,-8l-8,0l-0,8l8,0Zm-0.7,-0.7l-6.6,0c-0,0 -0,-6.6 -0,-6.6c-0,0 6.6,0 6.6,0c-0,0 -0,6.6 0,6.6Z"/><rect x="149.6" y="20" width="8" height="8" style="fill:#f3e6e6;"/><path d="M157.6,20l-8,0l-0,8l8,0l-0,-8Zm-0.7,0.7l-0,6.6c0,0 -6.6,0 -6.6,0c-0,0 -0,-6.6 -0,-6.6c0,0 6.6,0 6.6,-0Z"/><rect x="141.6" y="20" width="8" height="8" style="fill:#f3e6e6;"/><path d="M149.6,20l-8,0l-0,8l8,0l-0,-8Zm-0.7,0.7l-0,6.6c0,0 -6.6,0 -6.6,0c-0,0 -0,-6.6 -0,-6.6c0,0 6.6,0 6.6,-0Z"/><rect x="157.6" y="20" width="8" height="8" style="fill:#f3e6e6;"/><path d="M165.6,20l-8,0l-0,8l8,0l-0,-8Zm-0.7,0.7l-0,6.6c0,0 -6.6,0 -6.6,0c-0,0 -0,-6.6 -0,-6.6c0,0 6.6,0 6.6,-0Z"/><path d="M396,44l-0,-8l-8,0l4,4.16l4,3.84Z" style="fill:#f3e6e6;"/><path d="M396,44l-0,-8l-8,0l4,4.16l4,3.84Zm-0.7,-1.642l-2.805,-2.693c-0,-0 -2.851,-2.965 -2.851,-2.965c0,0 5.656,0 5.656,0l-0,5.658Z"/><path d="M380,12l-8,-0l-0,-8l4.16,4l3.84,4Z" style="fill:#f3e6e6;"/><path d="M380,12l-8,-0l-0,-8l4.16,4l3.84,4Zm-1.642,-0.7l-5.658,-0c-0,0 -0,-5.656 -0,-5.656c-0,0 2.965,2.851 2.965,2.851l2.693,2.805Z"/><path d="M380,28l8,-0l-0,8l-4.16,-4l-3.84,-4Z" style="fill:#f3e6e6;"/><path d="M380,28l8,-0l-0,8l-4.16,-4l-3.84,-4Zm1.642,0.7l5.658,-0c-0,-0 -0,5.656 -0,5.656c0,-0 -2.965,-2.851 -2.965,-2.851l-2.693,-2.805Z"/><path d="M388,20l-8,-0l-0,-8l4.16,4l3.84,4Z" style="fill:#f3e6e6;"/><path d="M388,20l-8,-0l-0,-8l4.16,4l3.84,4Zm-1.642,-0.7l-5.658,-0c0,0 -0,-5.656 -0,-5.656c-0,0 2.965,2.851 2.965,2.851l2.693,2.805Z"/><path d="M396,28l-8,-0l-0,-8l4.16,4l3.84,4Z" style="fill:#f3e6e6;"/><path d="M396,28l-8,-0l-0,-8l4.16,4l3.84,4Zm-1.642,-0.7l-5.658,-0c-0,0 -0,-5.656 -0,-5.656c-0,0 2.965,2.851 2.965,2.851l2.693,2.805Z"/><path d="M404,20l-0,-8l-8,-0l-0,8l8,-0Z" style="fill:#f3e6e6;"/><path d="M404,20l-0,-8l-8,-0l-0,8l8,-0Zm-0.7,-0.7l-6.6,-0c-0,0 -0,-6.6 -0,-6.6c-0,-0 6.6,-0 6.6,-0c-0,0 -0,6.6 0,6.6Z"/><path d="M404,12l-0,-8l-8,-0l-0,8l8,-0Z" style="fill:#f3e6e6;"/><path d="M404,12l-0,-8l-8,-0l-0,8l8,0Zm-0.7,-0.7l-6.6,-0c-0,0 -0,-6.6 -0,-6.6c-0,-0 6.6,-0 6.6,-0c-0,0 -0,6.6 0,6.6Z"/><path d="M380,20l-0,-8l-8,-0l-0,8l8,-0Z" style="fill:#f3e6e6;"/><path d="M380,20l-0,-8l-8,-0l-0,8l8,-0Zm-0.7,-0.7l-6.6,-0c-0,0 -0,-6.6 -0,-6.6c-0,-0 6.6,-0 6.6,-0c-0,0 -0,6.6 0,6.6Z"/><path d="M372,20l8,-0l-0,8l-4.16,-4l-3.84,-4Z" style="fill:#f3e6e6;"/><path d="M372,20l8,-0l0,8l-4.16,-4l-3.84,-4Zm1.642,0.7l5.658,-0c-0,-0 -0,5.656 -0,5.656c0,-0 -2.965,-2.851 -2.965,-2.851l-2.693,-2.805Z"/><path d="M404,28l-0,-8l-8,-0l-0,8l8,-0Z" style="fill:#f3e6e6;"/><path d="M404,28l-0,-8l-8,-0l-0,8l8,-0Zm-0.7,-0.7l-6.6,-0c-0,0 -0,-6.6 -0,-6.6c-0,-0 6.6,-0 6.6,-0c-0,0 -0,6.6 0,6.6Z"/><path d="M404,36l-0,-8l-8,-0l-0,8l8,-0Z" style="fill:#f3e6e6;"/><path d="M404,36l-0,-8l-8,-0l-0,8l8,-0Zm-0.7,-0.7l-6.6,-0c-0,0 -0,-6.6 -0,-6.6c-0,-0 6.6,-0 6.6,-0c-0,0 -0,6.6 0,6.6Z"/><path d="M388,28l-0,-8l-8,-0l-0,8l8,-0Z" style="fill:#f3e6e6;"/><path d="M388,28l-0,-8l-8,-0l-0,8l8,-0Zm-0.7,-0.7l-6.6,-0c-0,0 -0,-6.6 -0,-6.6c-0,-0 6.6,-0 6.6,-0c-0,0 -0,6.6 0,6.6Z"/><path d="M372,20l-0,-8l-8,-0l-0,8l8,-0Z" style="fill:#f3e6e6;"/><path d="M372,20l-0,-8l-8,-0l-0,8l8,-0Zm-0.7,-0.7l-6.6,-0c-0,0 -0,-6.6 -0,-6.6c-0,-0 6.6,-0 6.6,-0c-0,0 -0,6.6 0,6.6Z"/><path d="M372,44l-0,-8l-8,-0l-0,8l8,-0Z" style="fill:#f3e6e6;"/><path d="M372,44l-0,-8l-8,-0l-0,8l8,-0Zm-0.7,-0.7l-6.6,-0c-0,0 -0,-6.6 -0,-6.6c-0,-0 6.6,-0 6.6,-0c-0,0 -0,6.6 0,6.6Z"/><path d="M372,28l-0,-8l-8,-0l-0,8l8,-0Z" style="fill:#f3e6e6;"/><path d="M372,28l-0,-8l-8,-0l-0,8l8,-0Zm-0.7,-0.7l-6.6,-0c-0,0 -0,-6.6 -0,-6.6c-0,-0 6.6,-0 6.6,-0c-0,0 -0,6.6 0,6.6Z"/><path d="M372,36l-0,-8l-8,-0l-0,8l8,-0Z" style="fill:#f3e6e6;"/><path d="M372,36l-0,-8l-8,-0l-0,8l8,-0Zm-0.7,-0.7l-6.6,-0c-0,0 -0,-6.6 -0,-6.6c-0,-0 6.6,-0 6.6,-0c-0,0 -0,6.6 0,6.6Z"/><path d="M388,28l-0,8l8,-0l-0,-8l-8,-0Z" style="fill:#f3e6e6;"/><path d="M388,28l-0,8l8,-0l-0,-8l-8,-0Zm0.7,0.7l6.6,-0c-0,-0 -0,6.6 -0,6.6c0,-0 -6.6,-0 -6.6,-0c-0,-0 -0,-6.6 -0,-6.6Z"/><path d="M396,36l-0,8l8,-0l-0,-8l-8,-0Z" style="fill:#f3e6e6;"/><path d="M396,36l-0,8l8,-0l-0,-8l-8,-0Zm0.7,0.7l6.6,-0c-0,-0 -0,6.6 -0,6.6c0,-0 -6.6,-0 -6.6,-0c-0,-0 0,-6.6 -0,-6.6Z"/><path d="M372,12l-0,-8l-8,-0l-0,8l8,-0Z" style="fill:#f3e6e6;"/><path d="M372,12l-0,-8l-8,-0l-0,8l8,0Zm-0.7,-0.7l-6.6,-0c-0,0 -0,-6.6 -0,-6.6c-0,-0 6.6,-0 6.6,-0c-0,0 -0,6.6 0,6.6Z"/><path d="M229.6,44l8,0l-0,-8l-4.16,4l-3.84,4Z" style="fill:#f3e6e6;"/><path d="M229.6,44l8,0l-0,-8l-4.16,4l-3.84,4Zm1.642,-0.7l2.693,-2.805c0,-0 2.965,-2.851 2.965,-2.851c-0,0 -0,5.656 -0,5.656l-5.658,-0Z"/><path d="M221.6,44l-8,0l-0,-8l4.16,4l3.84,4Z" style="fill:#f3e6e6;"/><path d="M221.6,44l-8,0l-0,-8l4.16,4l3.84,4Zm-1.642,-0.7l-5.658,0c-0,0 -0,-5.656 -0,-5.656c-0,0 2.965,2.851 2.965,2.851l2.693,2.805Z"/><rect x="213.6" y="4" width="8" height="8" style="fill:#f3e6e6;"/><path d="M221.6,4l-8,0l-0,8l8,0l-0,-8Zm-0.7,0.7l-0,6.6c0,0 -6.6,0 -6.6,0c-0,0 -0,-6.6 -0,-6.6c0,0 6.6,0 6.6,-0Z"/><rect x="229.6" y="4" width="8" height="8" style="fill:#f3e6e6;"/><path d="M237.6,4l-8,0l-0,8l8,0l-0,-8Zm-0.7,0.7l-0,6.6c0,0 -6.6,0 -6.6,0c-0,0 -0,-6.6 -0,-6.6c0,0 6.6,0 6.6,-0Z"/><rect x="221.6" y="4" width="8" height="8" style="fill:#f3e6e6;"/><path d="M229.6,4l-8,0l-0,8l8,0l-0,-8Zm-0.7,0.7l-0,6.6c0,0 -6.6,0 -6.6,0c-0,0 -0,-6.6 -0,-6.6c0,0 6.6,0 6.6,-0Z"/><path d="M245.6,20l-0,-8l-8,0l-0,8l8,0Z" style="fill:#f3e6e6;"/><path d="M245.6,20l-0,-8l-8,0l-0,8l8,0Zm-0.7,-0.7l-6.6,0c-0,0 -0,-6.6 -0,-6.6c-0,0 6.6,0 6.6,0c-0,0 -0,6.6 0,6.6Z"/><path d="M245.6,44l-0,-8l-8,0l-0,8l8,0Z" style="fill:#f3e6e6;"/><path d="M245.6,44l-0,-8l-8,0l-0,8l8,0Zm-0.7,-0.7l-6.6,0c-0,0 -0,-6.6 -0,-6.6c-0,0 6.6,0 6.6,0c-0,0 -0,6.6 0,6.6Z"/><path d="M245.6,28l-0,-8l-8,0l-0,8l8,0Z" style="fill:#f3e6e6;"/><path d="M245.6,28l-0,-8l-8,0l-0,8l8,0Zm-0.7,-0.7l-6.6,0c-0,0 -0,-6.6 -0,-6.6c-0,0 6.6,0 6.6,0c-0,0 -0,6.6 0,6.6Z"/><path d="M245.6,36l-0,-8l-8,0l-0,8l8,0Z" style="fill:#f3e6e6;"/><path d="M245.6,36l-0,-8l-8,0l-0,8l8,0Zm-0.7,-0.7l-6.6,0c-0,0 -0,-6.6 -0,-6.6c-0,0 6.6,0 6.6,0c-0,0 -0,6.6 0,6.6Z"/><path d="M213.6,12l-0,-8l-8,8l8,0Z" style="fill:#f3e6e6;"/><path d="M213.6,12l-0,-8l-8,8l8,0Zm-0.7,-0.7l-5.61,0l5.61,-5.61c-0,-0 -0,5.61 0,5.61Z"/><path d="M237.6,12l-0,-8l8,8l-8,0Z" style="fill:#f3e6e6;"/><path d="M237.6,12l-0,-8l8,8l-8,0Zm0.7,-0.7l-0,-5.61l5.61,5.61c0,0 -5.61,0 -5.61,0Z"/><path d="M213.6,20l-0,-8l-8,0l-0,8l8,0Z" style="fill:#f3e6e6;"/><path d="M213.6,20l-0,-8l-8,0l-0,8l8,0Zm-0.7,-0.7l-6.6,0c-0,0 -0,-6.6 -0,-6.6c-0,0 6.6,0 6.6,0c-0,0 -0,6.6 0,6.6Z"/><path d="M213.6,44l-0,-8l-8,0l-0,8l8,0Z" style="fill:#f3e6e6;"/><path d="M213.6,44l-0,-8l-8,0l-0,8l8,0Zm-0.7,-0.7l-6.6,0c-0,0 -0,-6.6 -0,-6.6c-0,0 6.6,0 6.6,0c-0,0 -0,6.6 0,6.6Z"/><path d="M213.6,28l-0,-8l-8,0l-0,8l8,0Z" style="fill:#f3e6e6;"/><path d="M213.6,28l-0,-8l-8,0l-0,8l8,0Zm-0.7,-0.7l-6.6,0c-0,0 -0,-6.6 -0,-6.6c-0,0 6.6,0 6.6,0c-0,0 -0,6.6 0,6.6Z"/><path d="M213.6,36l-0,-8l-8,0l-0,8l8,0Z" style="fill:#f3e6e6;"/><path d="M213.6,36l-0,-8l-8,0l-0,8l8,0Zm-0.7,-0.7l-6.6,0c-0,0 -0,-6.6 -0,-6.6c-0,0 6.6,0 6.6,0c-0,0 -0,6.6 0,6.6Z"/><rect x="221.6" y="20" width="8" height="8" style="fill:#f3e6e6;"/><path d="M229.6,20l-8,0l-0,8l8,0l-0,-8Zm-0.7,0.7l-0,6.6c0,0 -6.6,0 -6.6,0c-0,0 -0,-6.6 -0,-6.6c0,0 6.6,0 6.6,-0Z"/><rect x="213.6" y="20" width="8" height="8" style="fill:#f3e6e6;"/><path d="M221.6,20l-8,0l-0,8l8,0l-0,-8Zm-0.7,0.7l-0,6.6c0,0 -6.6,0 -6.6,0c-0,0 -0,-6.6 -0,-6.6c0,0 6.6,0 6.6,-0Z"/><rect x="229.6" y="20" width="8" height="8" style="fill:#f3e6e6;"/><path d="M237.6,20l-8,0l-0,8l8,0l-0,-8Zm-0.7,0.7l-0,6.6c0,0 -6.6,0 -6.6,0c-0,0 -0,-6.6 -0,-6.6c0,0 6.6,0 6.6,-0Z"/><path d="M213.6,20l-0,-8l8,0l-4,4.16l-4,3.84Z" style="fill:#f3e6e6;"/><path d="M213.6,20l-0,-8l8,0l-4,4.16l-4,3.84Zm0.7,-1.642l-0,-5.658c-0,0 5.656,0 5.656,0c-0,-0 -2.851,2.965 -2.851,2.965l-2.805,2.693Z"/><path d="M229.6,12l8,0l-0,8l-4.16,-4l-3.84,-4Z" style="fill:#f3e6e6;"/><path d="M229.6,12l8,0l-0,8l-4.16,-4l-3.84,-4Zm1.642,0.7l5.658,0c-0,-0 -0,5.656 -0,5.656c0,-0 -2.965,-2.851 -2.965,-2.851l-2.693,-2.805Z"/><path d="M130.4,12l-8,0l-0,-8l4.16,4l3.84,4Z" style="fill:#f3e6e6;"/><path d="M130.4,12l-8,0l-0,-8l4.16,4l3.84,4Zm-1.642,-0.7l-5.658,0c-0,0 -0,-5.656 -0,-5.656c-0,0 2.965,2.851 2.965,2.851l2.693,2.805Z"/><path d="M122.4,20l-0,-8l-8,0l4,4.16l4,3.84Z" style="fill:#f3e6e6;"/><path d="M122.4,20l-0,-8l-8,0l4,4.16l4,3.84Zm-0.7,-1.642l-2.805,-2.693c-0,-0 -2.851,-2.965 -2.851,-2.965c0,0 5.656,0 5.656,0l-0,5.658Z"/><path d="M122.4,20l0,-8l8,0l-4,4.16l-4,3.84Z" style="fill:#f3e6e6;"/><path d="M122.4,20l0,-8l8,0l-4,4.16l-4,3.84Zm0.7,-1.642l0,-5.658c-0,0 5.656,0 5.656,0c-0,-0 -2.851,2.965 -2.851,2.965l-2.805,2.693Z"/><path d="M122.4,28l0,8l8,0l-4,-4.16l-4,-3.84Z" style="fill:#f3e6e6;"/><path d="M122.4,28l0,8l8,0l-4,-4.16l-4,-3.84Zm0.7,1.642l2.805,2.693c0,0 2.851,2.965 2.851,2.965c-0,0 -5.656,0 -5.656,0l0,-5.658Z"/><path d="M122.4,28l-0,8l-8,0l4,-4.16l4,-3.84Z" style="fill:#f3e6e6;"/><path d="M122.4,28l-0,8l-8,0l4,-4.16l4,-3.84Zm-0.7,1.642l-0,5.658c0,0 -5.656,0 -5.656,0c0,0 2.851,-2.965 2.851,-2.965l2.805,-2.693Z"/><path d="M98.4,4l-0,8l-8,0l4,-4.16l4,-3.84Z" style="fill:#f3e6e6;"/><path d="M98.4,4l-0,8l-8,0l4,-4.16l4,-3.84Zm-0.7,1.642l-0,5.658c0,0 -5.656,0 -5.656,0c0,0 2.851,-2.965 2.851,-2.965l2.805,-2.693Z"/><path d="M90.4,36l8,0l0,8l-4.16,-4l-3.84,-4Z" style="fill:#f3e6e6;"/><path d="M90.4,36l8,0l0,8l-4.16,-4l-3.84,-4Zm1.642,0.7l5.658,0c0,-0 -0,5.656 -0,5.656c0,-0 -2.965,-2.851 -2.965,-2.851l-2.693,-2.805Z"/><path d="M122.4,44l-0,-8l8,0l-4,4.16l-4,3.84Z" style="fill:#f3e6e6;"/><path d="M122.4,44l0,-8l8,0l-4,4.16l-4,3.84Zm0.7,-1.642l-0,-5.658c-0,0 5.656,0 5.656,0c-0,-0 -2.851,2.965 -2.851,2.965l-2.805,2.693Z"/><path d="M98.4,20l-0,-8l8,0l-4,4.16l-4,3.84Z" style="fill:#f3e6e6;"/><path d="M98.4,20l0,-8l8,0l-4,4.16l-4,3.84Zm0.7,-1.642l-0,-5.658c-0,0 5.656,0 5.656,0c-0,-0 -2.851,2.965 -2.851,2.965l-2.805,2.693Z"/><path d="M98.4,28l-0,8l8,0l-4,-4.16l-4,-3.84Z" style="fill:#f3e6e6;"/><path d="M98.4,28l-0,8l8,0l-4,-4.16l-4,-3.84Zm0.7,1.642l2.805,2.693c0,0 2.851,2.965 2.851,2.965c-0,0 -5.656,0 -5.656,0l0,-5.658Z"/><rect x="98.4" y="4" width="8" height="8" style="fill:#f3e6e6;"/><path d="M106.4,4l-8,0l0,8l8,0l0,-8Zm-0.7,0.7l-0,6.6c0,0 -6.6,0 -6.6,0c0,0 0,-6.6 0,-6.6c0,0 6.6,0 6.6,-0Z"/><rect x="106.4" y="4" width="8" height="8" style="fill:#f3e6e6;"/><path d="M114.4,4l-8,0l0,8l8,0l0,-8Zm-0.7,0.7l0,6.6c0,0 -6.6,0 -6.6,0c0,0 0,-6.6 0,-6.6c0,0 6.6,0 6.6,-0Z"/><rect x="114.4" y="4" width="8" height="8" style="fill:#f3e6e6;"/><path d="M122.4,4l-8,0l0,8l8,0l-0,-8Zm-0.7,0.7l-0,6.6c0,0 -6.6,0 -6.6,0c-0,0 -0,-6.6 -0,-6.6c0,0 6.6,0 6.6,-0Z"/><rect x="98.4" y="36" width="8" height="8" style="fill:#f3e6e6;"/><path d="M106.4,36l-8,0l0,8l8,0l0,-8Zm-0.7,0.7l-0,6.6c0,0 -6.6,0 -6.6,0c-0,0 -0,-6.6 -0,-6.6c0,0 6.6,0 6.6,-0Z"/><rect x="106.4" y="36" width="8" height="8" style="fill:#f3e6e6;"/><path d="M114.4,36l-8,0l-0,8l8,0l-0,-8Zm-0.7,0.7l-0,6.6c0,0 -6.6,0 -6.6,0c-0,0 -0,-6.6 -0,-6.6c0,0 6.6,0 6.6,-0Z"/><rect x="114.4" y="36" width="8" height="8" style="fill:#f3e6e6;"/><path d="M122.4,36l-8,0l0,8l8,0l-0,-8Zm-0.7,0.7l-0,6.6c0,0 -6.6,0 -6.6,0c-0,0 -0,-6.6 -0,-6.6c0,0 6.6,0 6.6,-0Z"/><path d="M90.4,28l0,8l8,0l0,-8l-8,0Z" style="fill:#f3e6e6;"/><path d="M90.4,28l0,8l8,0l0,-8l-8,0Zm0.7,0.7l6.6,0c0,-0 -0,6.6 -0,6.6c0,0 -6.6,0 -6.6,0c0,-0 0,-6.6 -0,-6.6Z"/><path d="M90.4,20l0,8l8,0l0,-8l-8,0Z" style="fill:#f3e6e6;"/><path d="M90.4,20l0,8l8,0l0,-8l-8,0Zm0.7,0.7l6.6,0c0,-0 -0,6.6 -0,6.6c0,0 -6.6,0 -6.6,0c0,-0 0,-6.6 -0,-6.6Z"/><path d="M90.4,12l0,8l8,0l0,-8l-8,0Z" style="fill:#f3e6e6;"/><path d="M90.4,12l0,8l8,0l0,-8l-8,0Zm0.7,0.7l6.6,0c0,-0 -0,6.6 -0,6.6c0,0 -6.6,0 -6.6,0c0,-0 0,-6.6 -0,-6.6Z"/><path d="M415.2,20l0,-8l8,0l-4,4.16l-4,3.84Z" style="fill:#f3e6e6;"/><path d="M415.2,20l0,-8l8,0l-4,4.16l-4,3.84Zm0.7,-1.642l0,-5.658c-0,0 5.656,0 5.656,0c-0,-0 -2.851,2.965 -2.851,2.965l-2.805,2.693Z"/><path d="M439.2,20l0,-8l8,0l-4,4.16l-4,3.84Z" style="fill:#f3e6e6;"/><path d="M439.2,20l0,-8l8,0l-4,4.16l-4,3.84Zm0.7,-1.642l0,-5.658c-0,0 5.656,0 5.656,0c-0,-0 -2.851,2.965 -2.851,2.965l-2.805,2.693Z"/><path d="M423.2,36l-8,0l0,-8l4.16,4l3.84,4Z" style="fill:#f3e6e6;"/><path d="M423.2,36l-8,0l0,-8l4.16,4l3.84,4Zm-1.642,-0.7l-5.658,0c0,0 0,-5.656 0,-5.656c-0,0 2.965,2.851 2.965,2.851l2.693,2.805Z"/><path d="M431.2,36l8,0l0,-8l-4.16,4l-3.84,4Z" style="fill:#f3e6e6;"/><path d="M431.2,36l8,0l0,-8l-4.16,4l-3.84,4Zm1.642,-0.7l2.693,-2.805c0,-0 2.965,-2.851 2.965,-2.851c0,0 0,5.656 0,5.656l-5.658,-0Z"/><path d="M431.2,20l0,8l8,0l0,-8l-8,0Z" style="fill:#f3e6e6;"/><path d="M431.2,20l0,8l8,0l0,-8l-8,0Zm0.7,0.7l6.6,0c0,-0 0,6.6 0,6.6c0,0 -6.6,0 -6.6,0c0,-0 0,-6.6 -0,-6.6Z"/><path d="M439.2,20l0,8l8,0l0,-8l-8,0Z" style="fill:#f3e6e6;"/><path d="M439.2,20l0,8l8,0l0,-8l-8,0Zm0.7,0.7l6.6,0c0,-0 0,6.6 0,6.6c0,0 -6.6,0 -6.6,0c0,-0 0,-6.6 -0,-6.6Z"/><path d="M447.2,12l-8,0l0,-8l4.16,4l3.84,4Z" style="fill:#f3e6e6;"/><path d="M447.2,12l-8,0l0,-8l4.16,4l3.84,4Zm-1.642,-0.7l-5.658,0c0,0 0,-5.656 0,-5.656c-0,0 2.965,2.851 2.965,2.851l2.693,2.805Z"/><path d="M415.2,4l-0,8l-8,0l4,-4.16l4,-3.84Z" style="fill:#f3e6e6;"/><path d="M415.2,4l-0,8l-8,0l4,-4.16l4,-3.84Zm-0.7,1.642l-0,5.658c0,0 -5.656,0 -5.656,0c0,0 2.851,-2.965 2.851,-2.965l2.805,-2.693Z"/><path d="M407.2,36l8,0l-0,8l-4.16,-4l-3.84,-4Z" style="fill:#f3e6e6;"/><path d="M407.2,36l8,0l-0,8l-4.16,-4l-3.84,-4Zm1.642,0.7l5.658,0c-0,-0 -0,5.656 -0,5.656c0,-0 -2.965,-2.851 -2.965,-2.851l-2.693,-2.805Z"/><path d="M423.2,20l8,0l0,8l-4.16,-4l-3.84,-4Z" style="fill:#f3e6e6;"/><path d="M423.2,20l8,0l-0,8l-4.16,-4l-3.84,-4Zm1.642,0.7l5.658,0c0,-0 0,5.656 0,5.656c0,-0 -2.965,-2.851 -2.965,-2.851l-2.693,-2.805Z"/><path d="M431.2,12l8,0l0,8l-4.16,-4l-3.84,-4Z" style="fill:#f3e6e6;"/><path d="M431.2,12l8,0l0,8l-4.16,-4l-3.84,-4Zm1.642,0.7l5.658,0c0,-0 0,5.656 0,5.656c0,-0 -2.965,-2.851 -2.965,-2.851l-2.693,-2.805Z"/><path d="M439.2,44l0,-8l8,0l-4,4.16l-4,3.84Z" style="fill:#f3e6e6;"/><path d="M439.2,44l0,-8l8,0l-4,4.16l-4,3.84Zm0.7,-1.642l0,-5.658c-0,0 5.656,0 5.656,0c-0,-0 -2.851,2.965 -2.851,2.965l-2.805,2.693Z"/><rect x="415.2" y="4" width="8" height="8" style="fill:#f3e6e6;"/><path d="M423.2,4l-8,-0l0,8l8,0l0,-8Zm-0.7,0.7l-0,6.6c0,0 -6.6,0 -6.6,0c0,0 0,-6.6 0,-6.6c0,-0 6.6,-0 6.6,-0Z"/><rect x="423.2" y="4" width="8" height="8" style="fill:#f3e6e6;"/><path d="M431.2,4l-8,-0l0,8l8,0l0,-8Zm-0.7,0.7l0,6.6c0,0 -6.6,0 -6.6,0c0,0 0,-6.6 0,-6.6c0,-0 6.6,-0 6.6,-0Z"/><rect x="431.2" y="4" width="8" height="8" style="fill:#f3e6e6;"/><path d="M439.2,4l-8,-0l0,8l8,0l0,-8Zm-0.7,0.7l0,6.6c0,0 -6.6,0 -6.6,0c0,0 0,-6.6 0,-6.6c0,-0 6.6,-0 6.6,-0Z"/><rect x="415.2" y="36" width="8" height="8" style="fill:#f3e6e6;"/><path d="M423.2,36l-8,0l0,8l8,0l0,-8Zm-0.7,0.7l-0,6.6c0,0 -6.6,0 -6.6,0c0,0 0,-6.6 0,-6.6c0,0 6.6,0 6.6,-0Z"/><rect x="423.2" y="36" width="8" height="8" style="fill:#f3e6e6;"/><path d="M431.2,36l-8,0l0,8l8,0l0,-8Zm-0.7,0.7l0,6.6c0,0 -6.6,0 -6.6,0c0,0 0,-6.6 0,-6.6c0,0 6.6,0 6.6,-0Z"/><rect x="431.2" y="36" width="8" height="8" style="fill:#f3e6e6;"/><path d="M439.2,36l-8,0l0,8l8,0l0,-8Zm-0.7,0.7l0,6.6c0,0 -6.6,0 -6.6,0c0,0 0,-6.6 0,-6.6c0,0 6.6,0 6.6,-0Z"/><path d="M439.2,28l0,8l8,0l0,-8l-8,0Z" style="fill:#f3e6e6;"/><path d="M439.2,28l0,8l8,0l0,-8l-8,0Zm0.7,0.7l6.6,0c0,-0 0,6.6 0,6.6c0,0 -6.6,0 -6.6,0c0,-0 0,-6.6 -0,-6.6Z"/><path d="M407.2,28l0,8l8,0l0,-8l-8,0Z" style="fill:#f3e6e6;"/><path d="M407.2,28l0,8l8,0l0,-8l-8,0Zm0.7,0.7l6.6,0c0,-0 0,6.6 0,6.6c0,0 -6.6,0 -6.6,0c0,-0 0,-6.6 -0,-6.6Z"/><path d="M407.2,20l0,8l8,0l0,-8l-8,0Z" style="fill:#f3e6e6;"/><path d="M407.2,20l0,8l8,0l0,-8l-8,0Zm0.7,0.7l6.6,0c0,-0 0,6.6 0,6.6c0,0 -6.6,0 -6.6,0c0,-0 0,-6.6 -0,-6.6Z"/><path d="M407.2,12l0,8l8,0l0,-8l-8,0Z" style="fill:#f3e6e6;"/><path d="M407.2,12l0,8l8,0l0,-8l-8,0Zm0.7,0.7l6.6,0c0,-0 0,6.6 0,6.6c0,0 -6.6,0 -6.6,0c0,-0 0,-6.6 -0,-6.6Z"/><path d="M350.4,28l-0,8l-8,0l4,-4.16l4,-3.84Z" style="fill:#f3e6e6;"/><path d="M350.4,28l0,8l-8,0l4,-4.16l4,-3.84Zm-0.7,1.642l0,5.658c0,0 -5.656,0 -5.656,0c0,0 2.851,-2.965 2.851,-2.965l2.805,-2.693Z"/><path d="M326.4,28l-0,8l8,0l-4,-4.16l-4,-3.84Z" style="fill:#f3e6e6;"/><path d="M326.4,28l-0,8l8,0l-4,-4.16l-4,-3.84Zm0.7,1.642l2.805,2.693c0,0 2.851,2.965 2.851,2.965c-0,0 -5.656,0 -5.656,0l0,-5.658Z"/><path d="M318.4,36l8,0l-0,8l-4.16,-4l-3.84,-4Z" style="fill:#f3e6e6;"/><path d="M318.4,36l8,0l-0,8l-4.16,-4l-3.84,-4Zm1.642,0.7l5.658,0c-0,-0 -0,5.656 -0,5.656c0,-0 -2.965,-2.851 -2.965,-2.851l-2.693,-2.805Z"/><path d="M350.4,44l0,-8l8,0l-4,4.16l-4,3.84Z" style="fill:#f3e6e6;"/><path d="M350.4,44l-0,-8l8,0l-4,4.16l-4,3.84Zm0.7,-1.642l0,-5.658c-0,0 5.656,0 5.656,0c-0,-0 -2.851,2.965 -2.851,2.965l-2.805,2.693Z"/><path d="M318.4,28l-0,8l8,0l-0,-8l-8,-0Z" style="fill:#f3e6e6;"/><path d="M318.4,28l-0,8l8,0l-0,-8l-8,0Zm0.7,0.7l6.6,-0c-0,-0 -0,6.6 -0,6.6c0,0 -6.6,0 -6.6,0c-0,-0 -0,-6.6 -0,-6.6Z"/><path d="M318.4,20l-0,8l8,-0l-0,-8l-8,-0Z" style="fill:#f3e6e6;"/><path d="M318.4,20l-0,8l8,0l-0,-8l-8,-0Zm0.7,0.7l6.6,-0c-0,-0 -0,6.6 -0,6.6c0,0 -6.6,0 -6.6,0c-0,-0 -0,-6.6 -0,-6.6Z"/><path d="M318.4,12l-0,8l8,0l-0,-8l-8,-0Z" style="fill:#f3e6e6;"/><path d="M318.4,12l-0,8l8,0l-0,-8l-8,-0Zm0.7,0.7l6.6,-0c-0,-0 -0,6.6 -0,6.6c0,0 -6.6,0 -6.6,0c-0,-0 -0,-6.6 -0,-6.6Z"/><path d="M350.4,28l0,8l8,0l0,-8l-8,0Z" style="fill:#f3e6e6;"/><path d="M350.4,28l0,8l8,0l0,-8l-8,0Zm0.7,0.7l6.6,0c-0,-0 0,6.6 0,6.6c0,0 -6.6,0 -6.6,0c0,-0 0,-6.6 -0,-6.6Z"/><path d="M350.4,20l0,8l8,0l0,-8l-8,0Z" style="fill:#f3e6e6;"/><path d="M350.4,20l0,8l8,0l0,-8l-8,0Zm0.7,0.7l6.6,0c-0,-0 0,6.6 0,6.6c0,0 -6.6,0 -6.6,0c0,-0 0,-6.6 -0,-6.6Z"/><path d="M350.4,12l0,8l8,0l0,-8l-8,-0Z" style="fill:#f3e6e6;"/><path d="M350.4,12l0,8l8,0l0,-8l-8,-0Zm0.7,0.7l6.6,-0c-0,-0 0,6.6 0,6.6c0,0 -6.6,0 -6.6,0c0,-0 0,-6.6 -0,-6.6Z"/><rect x="350.4" y="4" width="8" height="8" style="fill:#f3e6e6;"/><path d="M350.4,12l8,0l-0,-8l-8,-0l-0,8Zm0.7,-0.7l-0,-6.6c-0,-0 6.6,-0 6.6,-0c-0,-0 -0,6.6 -0,6.6c-0,0 -6.6,-0 -6.6,0Z"/><rect x="318.4" y="4" width="8" height="8" style="fill:#f3e6e6;"/><path d="M318.4,12l8,0l-0,-8l-8,-0l-0,8Zm0.7,-0.7l-0,-6.6c-0,-0 6.6,-0 6.6,-0c-0,-0 -0,6.6 -0,6.6c-0,-0 -6.6,-0 -6.6,0Z"/><rect x="342.4" y="36" width="8" height="8" style="fill:#f3e6e6;"/><path d="M342.4,44l8,0l0,-8l-8,0l-0,8Zm0.7,-0.7l-0,-6.6c-0,0 6.6,0 6.6,0c0,-0 -0,6.6 -0,6.6c-0,0 -6.6,0 -6.6,0Z"/><rect x="334.4" y="36" width="8" height="8" style="fill:#f3e6e6;"/><path d="M334.4,44l8,0l-0,-8l-8,0l-0,8Zm0.7,-0.7l-0,-6.6c-0,0 6.6,0 6.6,0c-0,-0 -0,6.6 -0,6.6c-0,0 -6.6,0 -6.6,0Z"/><rect x="326.4" y="36" width="8" height="8" style="fill:#f3e6e6;"/><path d="M326.4,44l8,0l-0,-8l-8,0l-0,8Zm0.7,-0.7l-0,-6.6c-0,0 6.6,0 6.6,0c-0,-0 -0,6.6 -0,6.6c-0,0 -6.6,0 -6.6,0Z"/><path d="M55.2,12l0,-8l-8,0l-0,8l8,0Z" style="fill:#f3e6e6;"/><path d="M55.2,12l0,-8l-8,0l-0,8l8,0Zm-0.7,-0.7l-6.6,0c-0,0 -0,-6.6 -0,-6.6c-0,0 6.6,0 6.6,0c-0,0 0,6.6 0,6.6Z"/><path d="M71.2,44l-0,-8l-8,0l-0,8l8,0Z" style="fill:#f3e6e6;"/><path d="M71.2,44l0,-8l-8,0l-0,8l8,0Zm-0.7,-0.7l-6.6,0c0,0 0,-6.6 0,-6.6c-0,0 6.6,0 6.6,0c-0,0 0,6.6 0,6.6Z"/><path d="M55.2,20l0,-8l-8,0l0,8l8,0Z" style="fill:#f3e6e6;"/><path d="M55.2,20l-0,-8l-8,0l-0,8l8,0Zm-0.7,-0.7l-6.6,0c0,0 -0,-6.6 -0,-6.6c-0,0 6.6,0 6.6,0c-0,0 -0,6.6 0,6.6Z"/><path d="M87.2,12l0,-8l-8,0l0,8l8,0Z" style="fill:#f3e6e6;"/><path d="M87.2,12l0,-8l-8,0l0,8l8,0Zm-0.7,-0.7l-6.6,0c0,0 0,-6.6 0,-6.6c-0,0 6.6,0 6.6,0c0,0 0,6.6 0,6.6Z"/><path d="M87.2,20l0,-8l-8,0l0,8l8,0Z" style="fill:#f3e6e6;"/><path d="M87.2,20l0,-8l-8,0l0,8l8,0Zm-0.7,-0.7l-6.6,0c0,0 0,-6.6 0,-6.6c-0,0 6.6,0 6.6,0c0,0 0,6.6 0,6.6Z"/><rect x="63.2" y="20" width="8" height="8" style="fill:#f3e6e6;"/><path d="M71.2,20l-8,0l-0,8l8,0l-0,-8Zm-0.7,0.7l-0,6.6c0,0 -6.6,0 -6.6,0c0,0 0,-6.6 0,-6.6c0,0 6.6,0 6.6,-0Z"/><rect x="63.2" y="28" width="8" height="8" style="fill:#f3e6e6;"/><path d="M71.2,28l-8,0l-0,8l8,0l-0,-8Zm-0.7,0.7l-0,6.6c0,0 -6.6,0 -6.6,0c0,0 0,-6.6 0,-6.6c0,0 6.6,0 6.6,-0Z"/><rect x="55.2" y="4" width="8" height="8" style="fill:#f3e6e6;"/><path d="M63.2,4l-8,0l0,8l8,0l0,-8Zm-0.7,0.7l-0,6.6c0,0 -6.6,0 -6.6,0c0,0 0,-6.6 0,-6.6c0,0 6.6,0 6.6,-0Z"/><rect x="63.2" y="12" width="8" height="8" style="fill:#f3e6e6;"/><path d="M71.2,12l-8,0l-0,8l8,0l-0,-8Zm-0.7,0.7l-0,6.6c0,0 -6.6,0 -6.6,0c0,0 0,-6.6 0,-6.6c0,0 6.6,0 6.6,-0Z"/><rect x="63.2" y="4" width="8" height="8" style="fill:#f3e6e6;"/><path d="M71.2,4l-8,0l-0,8l8,0l-0,-8Zm-0.7,0.7l-0,6.6c0,0 -6.6,0 -6.6,0c0,0 0,-6.6 0,-6.6c0,0 6.6,0 6.6,-0Z"/><rect x="71.2" y="4" width="8" height="8" style="fill:#f3e6e6;"/><path d="M79.2,4l-8,0l-0,8l8,0l-0,-8Zm-0.7,0.7l-0,6.6c0,0 -6.6,0 -6.6,0c-0,0 -0,-6.6 -0,-6.6c0,0 6.6,0 6.6,-0Z"/><rect x="458.4" y="4" width="8" height="8" style="fill:#f3e6e6;"/><path d="M466.4,4l-8,0l-0,8l8,0l0,-8Zm-0.7,0.7l-0,6.6c0,0 -6.6,0 -6.6,0c0,0 0,-6.6 0,-6.6c0,0 6.6,0 6.6,-0Z"/><path d="M490.4,4l-8,0l0,8l4.16,-4l3.84,-4Z" style="fill:#f3e6e6;"/><path d="M490.4,4l-8,0l0,8l4.16,-4l3.84,-4Zm-1.642,0.7l-2.693,2.805c-0,0 -2.965,2.851 -2.965,2.851c0,-0 0,-5.656 0,-5.656l5.658,0Z"/><path d="M490.4,44l-8,0l0,-8l4.16,4l3.84,4Z" style="fill:#f3e6e6;"/><path d="M490.4,44l-8,0l0,-8l4.16,4l3.84,4Zm-1.642,-0.7l-5.658,0c0,0 0,-5.656 0,-5.656c-0,0 2.965,2.851 2.965,2.851l2.693,2.805Z"/><rect x="466.4" y="4" width="8" height="8" style="fill:#f3e6e6;"/><path d="M474.4,4l-8,0l0,8l8,0l0,-8Zm-0.7,0.7l0,6.6c0,0 -6.6,0 -6.6,0c0,0 0,-6.6 0,-6.6c0,0 6.6,0 6.6,-0Z"/><rect x="474.4" y="4" width="8" height="8" style="fill:#f3e6e6;"/><path d="M482.4,4l-8,0l0,8l8,0l0,-8Zm-0.7,0.7l0,6.6c0,0 -6.6,0 -6.6,0c0,0 0,-6.6 0,-6.6c0,0 6.6,0 6.6,-0Z"/><rect x="458.4" y="36" width="8" height="8" style="fill:#f3e6e6;"/><path d="M466.4,36l-8,0l-0,8l8,0l0,-8Zm-0.7,0.7l-0,6.6c0,0 -6.6,0 -6.6,0c0,0 0,-6.6 0,-6.6c0,0 6.6,0 6.6,-0Z"/><rect x="450.4" y="36" width="8" height="8" style="fill:#f3e6e6;"/><path d="M458.4,36l-8,0l-0,8l8,0l0,-8Zm-0.7,0.7l-0,6.6c0,0 -6.6,0 -6.6,0c0,0 0,-6.6 0,-6.6c0,0 6.6,0 6.6,-0Z"/><rect x="450.4" y="20" width="8" height="8" style="fill:#f3e6e6;"/><path d="M458.4,20l-8,0l-0,8l8,0l0,-8Zm-0.7,0.7l-0,6.6c0,0 -6.6,0 -6.6,0c0,0 0,-6.6 0,-6.6c0,0 6.6,0 6.6,-0Z"/><rect x="450.4" y="4" width="8" height="8" style="fill:#f3e6e6;"/><path d="M458.4,4l-8,0l-0,8l8,0l0,-8Zm-0.7,0.7l-0,6.6c0,0 -6.6,0 -6.6,0c0,0 0,-6.6 0,-6.6c0,0 6.6,0 6.6,-0Z"/><rect x="466.4" y="36" width="8" height="8" style="fill:#f3e6e6;"/><path d="M474.4,36l-8,0l0,8l8,0l0,-8Zm-0.7,0.7l0,6.6c0,0 -6.6,0 -6.6,0c0,0 0,-6.6 0,-6.6c0,0 6.6,0 6.6,-0Z"/><rect x="474.4" y="36" width="8" height="8" style="fill:#f3e6e6;"/><path d="M482.4,36l-8,0l0,8l8,0l0,-8Zm-0.7,0.7l0,6.6c0,0 -6.6,0 -6.6,0c0,0 0,-6.6 0,-6.6c0,0 6.6,0 6.6,-0Z"/><path d="M466.4,20l-0,8l8,0l-0,-8l-8,0Z" style="fill:#f3e6e6;"/><path d="M466.4,20l-0,8l8,0l-0,-8l-8,0Zm0.7,0.7l6.6,0c-0,-0 -0,6.6 -0,6.6c0,0 -6.6,0 -6.6,0c-0,-0 -0,-6.6 -0,-6.6Z"/><path d="M450.4,28l-0,8l8,0l0,-8l-8,0Z" style="fill:#f3e6e6;"/><path d="M450.4,28l-0,8l8,0l0,-8l-8,0Zm0.7,0.7l6.6,0c0,-0 -0,6.6 -0,6.6c0,0 -6.6,0 -6.6,0c0,-0 0,-6.6 -0,-6.6Z"/><path d="M458.4,20l-0,8l8,0l0,-8l-8,0Z" style="fill:#f3e6e6;"/><path d="M458.4,20l-0,8l8,0l-0,-8l-8,0Zm0.7,0.7l6.6,0c-0,-0 -0,6.6 -0,6.6c0,0 -6.6,0 -6.6,0c-0,-0 -0,-6.6 -0,-6.6Z"/><path d="M450.4,12l-0,8l8,0l0,-8l-8,0Z" style="fill:#f3e6e6;"/><path d="M450.4,12l-0,8l8,0l0,-8l-8,0Zm0.7,0.7l6.6,0c0,-0 -0,6.6 -0,6.6c0,0 -6.6,0 -6.6,0c0,-0 0,-6.6 -0,-6.6Z"/><rect x="12" y="4" width="8" height="8" style="fill:#f3e6e6;"/><path d="M20,4l-8,0l-0,8l8,0l-0,-8Zm-0.7,0.7l-0,6.6c0,0 -6.6,0 -6.6,0c-0,0 -0,-6.6 -0,-6.6c0,0 6.6,0 6.6,-0Z"/><path d="M44,4l-8,0l-0,8l4.16,-4l3.84,-4Z" style="fill:#f3e6e6;"/><path d="M44,4l-8,0l-0,8l4.16,-4l3.84,-4Zm-1.642,0.7l-2.693,2.805c-0,0 -2.965,2.851 -2.965,2.851c-0,-0 -0,-5.656 -0,-5.656l5.658,0Z"/><path d="M44,44l-8,0l-0,-8l4.16,4l3.84,4Z" style="fill:#f3e6e6;"/><path d="M44,44l-8,0l-0,-8l4.16,4l3.84,4Zm-1.642,-0.7l-5.658,0c-0,0 -0,-5.656 -0,-5.656c-0,0 2.965,2.851 2.965,2.851l2.693,2.805Z"/><rect x="20" y="4" width="8" height="8" style="fill:#f3e6e6;"/><path d="M28,4l-8,0l-0,8l8,0l-0,-8Zm-0.7,0.7l-0,6.6c0,0 -6.6,0 -6.6,0c-0,0 -0,-6.6 -0,-6.6c0,0 6.6,0 6.6,-0Z"/><rect x="28" y="4" width="8" height="8" style="fill:#f3e6e6;"/><path d="M36,4l-8,0l-0,8l8,0l-0,-8Zm-0.7,0.7l-0,6.6c0,0 -6.6,0 -6.6,0c-0,0 -0,-6.6 -0,-6.6c0,0 6.6,0 6.6,-0Z"/><rect x="12" y="36" width="8" height="8" style="fill:#f3e6e6;"/><path d="M20,36l-8,0l-0,8l8,0l-0,-8Zm-0.7,0.7l-0,6.6c0,0 -6.6,0 -6.6,0c-0,0 -0,-6.6 -0,-6.6c0,0 6.6,0 6.6,-0Z"/><rect x="4" y="36" width="8" height="8" style="fill:#f3e6e6;"/><path d="M12,36l-8,0l-0,8l8,0l-0,-8Zm-0.7,0.7l-0,6.6c0,0 -6.6,0 -6.6,0c-0,0 -0,-6.6 -0,-6.6c0,0 6.6,0 6.6,-0Z"/><rect x="4" y="20" width="8" height="8" style="fill:#f3e6e6;"/><path d="M12,20l-8,0l-0,8l8,0l-0,-8Zm-0.7,0.7l-0,6.6c0,0 -6.6,0 -6.6,0c-0,0 -0,-6.6 -0,-6.6c0,0 6.6,0 6.6,-0Z"/><rect x="4" y="4" width="8" height="8" style="fill:#f3e6e6;"/><path d="M12,4l-8,0l-0,8l8,0l-0,-8Zm-0.7,0.7l-0,6.6c0,0 -6.6,0 -6.6,0c-0,0 -0,-6.6 -0,-6.6c0,0 6.6,0 6.6,-0Z"/><rect x="20" y="36" width="8" height="8" style="fill:#f3e6e6;"/><path d="M28,36l-8,0l-0,8l8,0l-0,-8Zm-0.7,0.7l-0,6.6c0,0 -6.6,0 -6.6,0c-0,0 -0,-6.6 -0,-6.6c0,0 6.6,0 6.6,-0Z"/><rect x="28" y="36" width="8" height="8" style="fill:#f3e6e6;"/><path d="M36,36l-8,0l-0,8l8,0l-0,-8Zm-0.7,0.7l-0,6.6c0,0 -6.6,0 -6.6,0c-0,0 -0,-6.6 -0,-6.6c0,0 6.6,0 6.6,-0Z"/><path d="M20,20l-0,8l8,0l-0,-8l-8,0Z" style="fill:#f3e6e6;"/><path d="M20,20l-0,8l8,0l-0,-8l-8,0Zm0.7,0.7l6.6,0c-0,-0 -0,6.6 -0,6.6c0,0 -6.6,0 -6.6,0c-0,-0 -0,-6.6 -0,-6.6Z"/><path d="M4,28l-0,8l8,0l-0,-8l-8,0Z" style="fill:#f3e6e6;"/><path d="M4,28l-0,8l8,0l-0,-8l-8,0Zm0.7,0.7l6.6,0c-0,-0 -0,6.6 -0,6.6c0,0 -6.6,0 -6.6,0c-0,-0 -0,-6.6 -0,-6.6Z"/><path d="M12,20l-0,8l8,0l-0,-8l-8,0Z" style="fill:#f3e6e6;"/><path d="M12,20l-0,8l8,0l-0,-8l-8,0Zm0.7,0.7l6.6,0c-0,-0 -0,6.6 -0,6.6c0,0 -6.6,0 -6.6,0c-0,-0 -0,-6.6 -0,-6.6Z"/><path d="M4,12l-0,8l8,0l-0,-8l-8,0Z" style="fill:#f3e6e6;"/><path d="M4,12l-0,8l8,0l-0,-8l-8,0Zm0.7,0.7l6.6,0c-0,-0 -0,6.6 -0,6.6c0,0 -6.6,0 -6.6,0c-0,-0 -0,-6.6 -0,-6.6Z"/><path d="M270.8,44l8.8,0l-0,-8l-4.576,4l-4.224,4Z" style="fill:#f3e6e6;"/><path d="M270.8,44l8.8,0l-0,-8l-4.576,4l-4.224,4Zm1.757,-0.7l2.938,-2.782c0,-0 3.405,-2.976 3.405,-2.976c-0,-0 -0,5.758 -0,5.758l-6.343,0Z"/><path d="M270.8,4l8.8,0l-0,8l-4.576,-4l-4.224,-4Z" style="fill:#f3e6e6;"/><path d="M270.8,4l8.8,0l-0,8l-4.576,-4l-4.224,-4Zm1.757,0.7l6.343,0c-0,-0 -0,5.758 -0,5.758c-0,0 -3.405,-2.976 -3.405,-2.976l-2.938,-2.782Z"/><path d="M306,28l-0,8l-8.8,0l4.4,-4.16l4.4,-3.84Z" style="fill:#f3e6e6;"/><path d="M306,28l-0,8l-8.8,0l4.4,-4.16l4.4,-3.84Zm-0.7,1.54l-0,5.76c-0,0 -6.341,0 -6.341,0c0,-0 3.112,-2.942 3.112,-2.942l3.229,-2.818Z"/><path d="M306,20l-0,-8l-8.8,0l4.4,4.16l4.4,3.84Z" style="fill:#f3e6e6;"/><path d="M306,20l-0,-8l-8.8,0l4.4,4.16l4.4,3.84Zm-0.7,-1.54l-3.229,-2.818c-0,-0 -3.112,-2.942 -3.112,-2.942c0,0 6.341,0 6.341,0l0,5.76Z"/><path d="M314.8,20l-0,-8l-8.8,0l-0,8l8.8,0Z" style="fill:#f3e6e6;"/><path d="M314.8,20l-0,-8l-8.8,0l-0,8l8.8,0Zm-0.7,-0.7l-7.4,0c-0,0 -0,-6.6 -0,-6.6c0,0 7.4,0 7.4,0l-0,6.6Z"/><path d="M314.8,36l-0,-8l-8.8,0l-0,8l8.8,0Z" style="fill:#f3e6e6;"/><path d="M314.8,36l-0,-8l-8.8,0l-0,8l8.8,0Zm-0.7,-0.7l-7.4,0c-0,0 -0,-6.6 -0,-6.6c0,0 7.4,0 7.4,0l-0,6.6Z"/><path d="M314.8,28l-0,-8l-8.8,-0l-0,8l8.8,-0Z" style="fill:#f3e6e6;"/><path d="M314.8,28l-0,-8l-8.8,-0l-0,8l8.8,-0Zm-0.7,-0.7l-7.4,-0c-0,0 -0,-6.6 -0,-6.6c0,-0 7.4,-0 7.4,-0l-0,6.6Z"/><rect x="297.2" y="36" width="8.8" height="8" style="fill:#f3e6e6;"/><path d="M297.2,44l8.8,-0l-0,-8l-8.8,-0l0,8Zm0.7,-0.7l-0,-6.6c0,-0 7.4,-0 7.4,-0c0,-0 0,6.6 0,6.6l-7.4,0Z"/><rect x="288.4" y="36" width="8.8" height="8" style="fill:#f3e6e6;"/><path d="M288.4,44l8.8,-0l-0,-8l-8.8,-0l-0,8Zm0.7,-0.7l-0,-6.6c0,-0 7.4,-0 7.4,-0c-0,-0 -0,6.6 -0,6.6l-7.4,0Z"/><rect x="279.6" y="36" width="8.8" height="8" style="fill:#f3e6e6;"/><path d="M279.6,44l8.8,-0l-0,-8l-8.8,-0l-0,8Zm0.7,-0.7l0,-6.6c0,-0 7.4,-0 7.4,-0c-0,-0 -0,6.6 -0,6.6l-7.4,0Z"/><path d="M306,12l8.8,-0l-8.8,-8l-0,8Z" style="fill:#f3e6e6;"/><path d="M306,12l8.8,-0l-8.8,-8l-0,8Zm0.7,-0.7l-0,-5.718l6.289,5.718l-6.289,0Z"/><path d="M306,36l8.8,0l-8.8,8l-0,-8Z" style="fill:#f3e6e6;"/><path d="M306,36l8.8,0l-8.8,8l-0,-8Zm0.7,0.7l6.289,0l-6.289,5.718l0,-5.718Z"/><rect x="297.2" y="4" width="8.8" height="8" style="fill:#f3e6e6;"/><path d="M297.2,12l8.8,-0l-0,-8l-8.8,-0l0,8Zm0.7,-0.7l-0,-6.6c0,-0 7.4,-0 7.4,-0c0,-0 0,6.6 0,6.6l-7.4,0Z"/><rect x="288.4" y="4" width="8.8" height="8" style="fill:#f3e6e6;"/><path d="M288.4,12l8.8,-0l-0,-8l-8.8,-0l-0,8Zm0.7,-0.7l-0,-6.6c0,-0 7.4,-0 7.4,-0c-0,-0 -0,6.6 -0,6.6l-7.4,0Z"/><rect x="279.6" y="4" width="8.8" height="8" style="fill:#f3e6e6;"/><path d="M279.6,12l8.8,-0l-0,-8l-8.8,-0l-0,8Zm0.7,-0.7l0,-6.6c0,-0 7.4,-0 7.4,-0c-0,-0 -0,6.6 -0,6.6l-7.4,0Z"/><path d="M288.4,28l-0,-8l-8.8,0l-0,8l8.8,0Z" style="fill:#f3e6e6;"/><path d="M288.4,28l-0,-8l-8.8,0l-0,8l8.8,0Zm-0.7,-0.7l-7.4,0c-0,0 -0,-6.6 -0,-6.6c0,0 7.4,0 7.4,0l-0,6.6Z"/><path d="M288.4,20l-0,-8l-8.8,-0l-0,8l8.8,-0Z" style="fill:#f3e6e6;"/><path d="M288.4,20l-0,-8l-8.8,-0l-0,8l8.8,-0Zm-0.7,-0.7l-7.4,-0c-0,0 -0,-6.6 -0,-6.6c0,-0 7.4,-0 7.4,-0l-0,6.6Z"/><path d="M288.4,36l-0,-8l-8.8,-0l-0,8l8.8,-0Z" style="fill:#f3e6e6;"/><path d="M288.4,36l-0,-8l-8.8,-0l-0,8l8.8,-0Zm-0.7,-0.7l-7.4,-0c-0,0 -0,-6.6 -0,-6.6c0,-0 7.4,-0 7.4,-0l-0,6.6Z"/><path d="M265.6,20l-0,8l8,0l-0,-8l-8,0Z" style="fill:#f3e6e6;"/><path d="M265.6,20l-0,8l8,0l-0,-8l-8,0Zm0.7,0.7l6.6,0c-0,-0 -0,6.6 -0,6.6c0,0 -6.6,0 -6.6,0c-0,-0 -0,-6.6 -0,-6.6Z"/><path d="M528,12l-8,0l0,-8l4.16,4l3.84,4Z" style="fill:#f3e6e6;"/><path d="M528,12l-8,0l0,-8l4.16,4l3.84,4Zm-1.642,-0.7l-5.658,0c0,0 0,-5.656 0,-5.656c-0,0 2.965,2.851 2.965,2.851l2.693,2.805Z"/><path d="M496,4l-0,8l-8,0l4,-4.16l4,-3.84Z" style="fill:#f3e6e6;"/><path d="M496,4l-0,8l-8,0l4,-4.16l4,-3.84Zm-0.7,1.642l-0,5.658c0,0 -5.656,0 -5.656,0c0,0 2.851,-2.965 2.851,-2.965l2.805,-2.693Z"/><path d="M488,36l8,0l-0,8l-4.16,-4l-3.84,-4Z" style="fill:#f3e6e6;"/><path d="M488,36l8,0l-0,8l-4.16,-4l-3.84,-4Zm1.642,0.7l5.658,0c0,-0 0,5.656 0,5.656c0,-0 -2.965,-2.851 -2.965,-2.851l-2.693,-2.805Z"/><path d="M520,44l-0,-8l8,0l-4,4.16l-4,3.84Z" style="fill:#f3e6e6;"/><path d="M520,44l-0,-8l8,0l-4,4.16l-4,3.84Zm0.7,-1.642l-0,-5.658c-0,0 5.656,0 5.656,0c-0,-0 -2.851,2.965 -2.851,2.965l-2.805,2.693Z"/><rect x="496" y="4" width="8" height="8" style="fill:#f3e6e6;"/><path d="M504,4l-8,0l0,8l8,0l0,-8Zm-0.7,0.7l0,6.6c0,0 -6.6,0 -6.6,0c0,0 0,-6.6 0,-6.6c0,0 6.6,0 6.6,-0Z"/><rect x="504" y="4" width="8" height="8" style="fill:#f3e6e6;"/><path d="M512,4l-8,0l0,8l8,0l-0,-8Zm-0.7,0.7l-0,6.6c0,0 -6.6,0 -6.6,0c0,0 -0,-6.6 -0,-6.6c0,0 6.6,0 6.6,-0Z"/><rect x="512" y="4" width="8" height="8" style="fill:#f3e6e6;"/><path d="M520,4l-8,0l-0,8l8,0l-0,-8Zm-0.7,0.7l0,6.6c0,0 -6.6,0 -6.6,0c-0,0 -0,-6.6 -0,-6.6c0,0 6.6,0 6.6,-0Z"/><rect x="496" y="36" width="8" height="8" style="fill:#f3e6e6;"/><path d="M504,36l-8,0l0,8l8,0l0,-8Zm-0.7,0.7l0,6.6c0,0 -6.6,0 -6.6,0c0,0 0,-6.6 0,-6.6c0,0 6.6,0 6.6,-0Z"/><rect x="504" y="36" width="8" height="8" style="fill:#f3e6e6;"/><path d="M512,36l-8,0l0,8l8,0l-0,-8Zm-0.7,0.7l-0,6.6c0,0 -6.6,0 -6.6,0c0,0 -0,-6.6 -0,-6.6c0,0 6.6,0 6.6,-0Z"/><rect x="512" y="36" width="8" height="8" style="fill:#f3e6e6;"/><path d="M520,36l-8,0l-0,8l8,0l-0,-8Zm-0.7,0.7l0,6.6c0,0 -6.6,0 -6.6,0c-0,0 -0,-6.6 -0,-6.6c0,0 6.6,0 6.6,-0Z"/><path d="M520,28l0,8l8,0l0,-8l-8,0Z" style="fill:#f3e6e6;"/><path d="M520,28l0,8l8,0l0,-8l-8,0Zm0.7,0.7l6.6,0c0,-0 0,6.6 0,6.6c0,0 -6.6,0 -6.6,0c0,-0 -0,-6.6 -0,-6.6Z"/><path d="M520,12l-0,8l8,0l-0,-8l-8,0Z" style="fill:#f3e6e6;"/><path d="M520,12l-0,8l8,0l0,-8l-8,0Zm0.7,0.7l6.6,0c-0,-0 -0,6.6 -0,6.6c0,0 -6.6,0 -6.6,0c-0,-0 -0,-6.6 -0,-6.6Z"/><path d="M520,20l-0,8l8,0l-0,-8l-8,0Z" style="fill:#f3e6e6;"/><path d="M520,20l-0,8l8,0l0,-8l-8,0Zm0.7,0.7l6.6,0c-0,-0 -0,6.6 -0,6.6c0,0 -6.6,0 -6.6,0c-0,-0 -0,-6.6 -0,-6.6Z"/><path d="M488,28l-0,8l8,0l-0,-8l-8,0Z" style="fill:#f3e6e6;"/><path d="M488,28l-0,8l8,0l0,-8l-8,0Zm0.7,0.7l6.6,0c0,-0 0,6.6 0,6.6c0,0 -6.6,0 -6.6,0c-0,-0 -0,-6.6 -0,-6.6Z"/><path d="M488,20l-0,8l8,0l-0,-8l-8,0Z" style="fill:#f3e6e6;"/><path d="M488,20l-0,8l8,0l0,-8l-8,0Zm0.7,0.7l6.6,0c0,-0 0,6.6 0,6.6c0,0 -6.6,-0 -6.6,-0c-0,-0 -0,-6.6 -0,-6.6Z"/><path d="M488,12l-0,8l8,0l-0,-8l-8,0Z" style="fill:#f3e6e6;"/><path d="M488,12l-0,8l8,0l0,-8l-8,0Zm0.7,0.7l6.6,0c0,-0 0,6.6 0,6.6c0,0 -6.6,0 -6.6,0c-0,-0 -0,-6.6 -0,-6.6Z"/><path d="M504,36l-8,0l0,-8l4.16,4l3.84,4Z" style="fill:#f3e6e6;"/><path d="M504,36l-8,0l0,-8l4.16,4l3.84,4Zm-1.642,-0.7l-5.658,0c0,0 0,-5.656 0,-5.656c-0,0 2.965,2.851 2.965,2.851l2.693,2.805Z"/><path d="M496,20l-0,-8l8,0l-4,4.16l-4,3.84Z" style="fill:#f3e6e6;"/><path d="M496,20l-0,-8l8,0l-4,4.16l-4,3.84Zm0.7,-1.642l-0,-5.658c-0,0 5.656,0 5.656,0c-0,-0 -2.851,2.965 -2.851,2.965l-2.805,2.693Z"/><path d="M512,36l8,0l-0,-8l-4.16,4l-3.84,4Z" style="fill:#f3e6e6;"/><path d="M512,36l8,0l-0,-8l-4.16,4l-3.84,4Zm1.642,-0.7l2.693,-2.805c0,-0 2.965,-2.851 2.965,-2.851c-0,0 0,5.656 0,5.656l-5.658,-0Z"/><path d="M520,20l0,-8l-8,0l4,4.16l4,3.84Z" style="fill:#f3e6e6;"/><path d="M520,20l0,-8l-8,0l4,4.16l4,3.84Zm-0.7,-1.642l-2.805,-2.693c-0,-0 -2.851,-2.965 -2.851,-2.965c0,0 5.656,0 5.656,0l-0,5.658Z"/><path d="M564,44l-0,-8l-8,0l4,4.16l4,3.84Z" style="fill:#f3e6e6;"/><path d="M564,44l-0,-8l-8,0l4,4.16l4,3.84Zm-0.7,-1.642l-2.805,-2.693c-0,-0 -2.851,-2.965 -2.851,-2.965c0,0 5.656,0 5.656,0l-0,5.658Z"/><path d="M548,12l-8,0l-0,-8l4.16,4l3.84,4Z" style="fill:#f3e6e6;"/><path d="M548,12l-8,0l-0,-8l4.16,4l3.84,4Zm-1.642,-0.7l-5.658,0c-0,0 -0,-5.656 -0,-5.656c-0,0 2.965,2.851 2.965,2.851l2.693,2.805Z"/><path d="M548,28l8,0l-0,8l-4.16,-4l-3.84,-4Z" style="fill:#f3e6e6;"/><path d="M548,28l8,0l-0,8l-4.16,-4l-3.84,-4Zm1.642,0.7l5.658,0c-0,-0 -0,5.656 -0,5.656c0,-0 -2.965,-2.851 -2.965,-2.851l-2.693,-2.805Z"/><path d="M556,20l-8,0l-0,-8l4.16,4l3.84,4Z" style="fill:#f3e6e6;"/><path d="M556,20l-8,0l-0,-8l4.16,4l3.84,4Zm-1.642,-0.7l-5.658,0c-0,0 -0,-5.656 -0,-5.656c-0,0 2.965,2.851 2.965,2.851l2.693,2.805Z"/><path d="M564,28l-8,0l-0,-8l4.16,4l3.84,4Z" style="fill:#f3e6e6;"/><path d="M564,28l-8,0l-0,-8l4.16,4l3.84,4Zm-1.642,-0.7l-5.658,0c-0,0 -0,-5.656 -0,-5.656c-0,0 2.965,2.851 2.965,2.851l2.693,2.805Z"/><path d="M572,20l-0,-8l-8,0l-0,8l8,0Z" style="fill:#f3e6e6;"/><path d="M572,20l-0,-8l-8,0l-0,8l8,0Zm-0.7,-0.7l-6.6,0c-0,0 -0,-6.6 -0,-6.6c-0,0 6.6,0 6.6,0c-0,0 -0,6.6 0,6.6Z"/><path d="M572,12l-0,-8l-8,0l-0,8l8,0Z" style="fill:#f3e6e6;"/><path d="M572,12l-0,-8l-8,0l-0,8l8,0Zm-0.7,-0.7l-6.6,0c-0,0 -0,-6.6 -0,-6.6c-0,0 6.6,0 6.6,0c-0,0 -0,6.6 0,6.6Z"/><path d="M548,20l-0,-8l-8,0l-0,8l8,0Z" style="fill:#f3e6e6;"/><path d="M548,20l-0,-8l-8,0l-0,8l8,0Zm-0.7,-0.7l-6.6,0c-0,0 -0,-6.6 -0,-6.6c-0,0 6.6,0 6.6,0c-0,0 -0,6.6 0,6.6Z"/><path d="M540,20l8,0l-0,8l-4.16,-4l-3.84,-4Z" style="fill:#f3e6e6;"/><path d="M540,20l8,0l-0,8l-4.16,-4l-3.84,-4Zm1.642,0.7l5.658,0c-0,-0 -0,5.656 -0,5.656c0,-0 -2.965,-2.851 -2.965,-2.851l-2.693,-2.805Z"/><path d="M572,28l-0,-8l-8,0l-0,8l8,0Z" style="fill:#f3e6e6;"/><path d="M572,28l-0,-8l-8,0l-0,8l8,0Zm-0.7,-0.7l-6.6,0c-0,0 -0,-6.6 -0,-6.6c-0,0 6.6,0 6.6,0c-0,0 -0,6.6 0,6.6Z"/><path d="M572,36l-0,-8l-8,0l-0,8l8,0Z" style="fill:#f3e6e6;"/><path d="M572,36l-0,-8l-8,0l-0,8l8,0Zm-0.7,-0.7l-6.6,0c-0,0 -0,-6.6 -0,-6.6c-0,0 6.6,0 6.6,0c-0,0 -0,6.6 0,6.6Z"/><path d="M556,28l-0,-8l-8,0l-0,8l8,0Z" style="fill:#f3e6e6;"/><path d="M556,28l-0,-8l-8,0l-0,8l8,0Zm-0.7,-0.7l-6.6,0c-0,0 -0,-6.6 -0,-6.6c-0,0 6.6,0 6.6,0c0,0 -0,6.6 0,6.6Z"/><path d="M540,20l-0,-8l-8,0l-0,8l8,0Z" style="fill:#f3e6e6;"/><path d="M540,20l-0,-8l-8,0l-0,8l8,0Zm-0.7,-0.7l-6.6,0c-0,0 -0,-6.6 -0,-6.6c-0,0 6.6,0 6.6,0c-0,0 -0,6.6 0,6.6Z"/><path d="M540,44l-0,-8l-8,0l-0,8l8,0Z" style="fill:#f3e6e6;"/><path d="M540,44l-0,-8l-8,0l-0,8l8,0Zm-0.7,-0.7l-6.6,0c-0,0 -0,-6.6 -0,-6.6c-0,0 6.6,0 6.6,0c-0,0 -0,6.6 0,6.6Z"/><path d="M540,28l-0,-8l-8,0l-0,8l8,0Z" style="fill:#f3e6e6;"/><path d="M540,28l-0,-8l-8,0l-0,8l8,0Zm-0.7,-0.7l-6.6,0c-0,0 -0,-6.6 -0,-6.6c-0,0 6.6,0 6.6,0c-0,0 -0,6.6 0,6.6Z"/><path d="M540,36l-0,-8l-8,0l-0,8l8,0Z" style="fill:#f3e6e6;"/><path d="M540,36l-0,-8l-8,0l-0,8l8,0Zm-0.7,-0.7l-6.6,0c-0,0 -0,-6.6 -0,-6.6c-0,0 6.6,0 6.6,0c-0,0 -0,6.6 0,6.6Z"/><path d="M556,28l-0,8l8,0l-0,-8l-8,0Z" style="fill:#f3e6e6;"/><path d="M556,28l-0,8l8,0l-0,-8l-8,0Zm0.7,0.7l6.6,0c-0,-0 -0,6.6 -0,6.6c0,0 -6.6,0 -6.6,0c-0,-0 -0,-6.6 -0,-6.6Z"/><path d="M564,36l-0,8l8,0l-0,-8l-8,0Z" style="fill:#f3e6e6;"/><path d="M564,36l-0,8l8,0l-0,-8l-8,0Zm0.7,0.7l6.6,0c-0,-0 -0,6.6 -0,6.6c0,0 -6.6,0 -6.6,0c-0,-0 -0,-6.6 -0,-6.6Z"/><path d="M540,12l-0,-8l-8,0l-0,8l8,0Z" style="fill:#f3e6e6;"/><path d="M540,12l-0,-8l-8,0l-0,8l8,0Zm-0.7,-0.7l-6.6,0c-0,0 -0,-6.6 -0,-6.6c-0,0 6.6,0 6.6,0c-0,0 -0,6.6 0,6.6Z"/></g></svg>