<svg xmlns="http://www.w3.org/2000/svg" xml:space="preserve" style="fill-rule:evenodd;clip-rule:evenodd;stroke-linejoin:round;stroke-miterlimit:2" viewBox="0 0 120 120"><path d="M0 90h18.75v30H0zm0-32.769h22.5v30H0z"/><path d="M0 30h26.25v30H0zM0 0h30v27.231H0zm101.25 90H120v30h-18.75zM97.5 57.231H120v30H97.5z"/><path d="M93.75 30H120v30H93.75zM90 0h30v27.231H90z"/><path d="M120 0H0v120h120zm-4.167 4.167v111.666H4.167V4.167z"/><path d="M0 86.25h120v7.5H0zm0-30h120v7.5H0zm0-30h120v7.5H0z"/></svg>