<svg xmlns="http://www.w3.org/2000/svg" xml:space="preserve" style="fill-rule:evenodd;clip-rule:evenodd;stroke-linejoin:round;stroke-miterlimit:2" viewBox="0 0 120 120"><path d="M100.203 33.868c0-7.766-6.305-14.071-14.071-14.071H33.868c-7.766 0-14.071 6.305-14.071 14.071V62.01c0 7.766 6.305 14.071 14.071 14.071h12.061l-10.051 24.122L57.99 76.081h28.142c7.766 0 14.071-6.305 14.071-14.071z" style="fill:#fff"/><path d="M100.203 33.868c0-7.766-6.305-14.071-14.071-14.071H33.868c-7.766 0-14.071 6.305-14.071 14.071V62.01c0 7.766 6.305 14.071 14.071 14.071h12.061l-10.051 24.122L57.99 76.081h28.142c7.766 0 14.071-6.305 14.071-14.071zM51.959 70.334a8.32 8.32 0 0 0-6.03-2.586H33.868a5.74 5.74 0 0 1-5.738-5.738V33.868a5.74 5.74 0 0 1 5.738-5.738h52.264a5.74 5.74 0 0 1 5.738 5.738V62.01a5.74 5.74 0 0 1-5.738 5.738H57.99a8.32 8.32 0 0 0-6.031 2.586"/></svg>