<svg xmlns="http://www.w3.org/2000/svg" xml:space="preserve" style="fill-rule:evenodd;clip-rule:evenodd;stroke-linejoin:round;stroke-miterlimit:2" viewBox="0 0 120 120"><path d="M60 30c16.557 0 30 13.443 30 30S76.557 90 60 90 30 76.557 30 60s13.443-30 30-30m0 4.285 5.77 17.735h18.671L69.336 62.98l5.77 17.735L60 69.755l-15.106 10.96 5.77-17.735-15.105-10.96H54.23z" style="fill:#fff"/><path d="M60 30c16.557 0 30 13.443 30 30S76.557 90 60 90 30 76.557 30 60s13.443-30 30-30m-2.088 51.566L60 80.051l2.088 1.515a21.5 21.5 0 0 1-4.176 0M60 34.285l5.77 17.735h18.671L69.336 62.98l5.77 17.735L60 69.755l-15.106 10.96 5.77-17.735-15.105-10.96H54.23zm19.135 31.881 2.018-1.464a21.4 21.4 0 0 1-1.242 3.847zm-40.288-1.464 2.018 1.464-.776 2.383a21.6 21.6 0 0 1-1.242-3.847m10.082-23.325-.751 2.309h-2.422a21.3 21.3 0 0 1 3.173-2.309m22.893 2.309-.751-2.309a22 22 0 0 1 3.173 2.309z"/></svg>