<svg xmlns="http://www.w3.org/2000/svg" xml:space="preserve" style="fill-rule:evenodd;clip-rule:evenodd;stroke-linejoin:round;stroke-miterlimit:2" viewBox="0 0 120 120"><path d="M60 15c25.043 0 45.375 20.164 45.375 45S85.043 105 60 105 14.625 84.836 14.625 60 34.957 15 60 15m0 22.5c12.522 0 22.687 10.082 22.687 22.5S72.522 82.5 60 82.5 37.313 72.418 37.313 60 47.478 37.5 60 37.5" style="fill:#fff"/><path d="M60 15c25.043 0 45.375 20.164 45.375 45S85.043 105 60 105 14.625 84.836 14.625 60 34.957 15 60 15m0 8.333c20.425 0 37.042 16.411 37.042 36.667S80.425 96.667 60 96.667 22.958 80.256 22.958 60 39.575 23.333 60 23.333m0 5.834c-17.14 0-31.021 13.835-31.021 30.833S42.86 90.833 60 90.833 91.021 76.998 91.021 60 77.14 29.167 60 29.167m0 8.333c12.522 0 22.687 10.082 22.687 22.5S72.522 82.5 60 82.5 37.313 72.418 37.313 60 47.478 37.5 60 37.5"/></svg>