<svg xmlns="http://www.w3.org/2000/svg" xml:space="preserve" style="fill-rule:evenodd;clip-rule:evenodd;stroke-linejoin:round;stroke-miterlimit:2" viewBox="0 0 120 120"><path d="M60 15c24.836 0 45 20.164 45 45s-20.164 45-45 45-45-20.164-45-45 20.164-45 45-45m0 6.427 8.655 26.602h28.007L74.004 64.471l8.654 26.602L60 74.632 37.342 91.073l8.654-26.602-22.658-16.442h28.007z" style="fill:#fff"/><path d="M60 15c24.836 0 45 20.164 45 45s-20.164 45-45 45-45-20.164-45-45 20.164-45 45-45M47.065 94.314 60 84.928l12.935 9.386A36.5 36.5 0 0 1 60 96.667a36.5 36.5 0 0 1-12.935-2.353M60 21.427l8.655 26.602h28.007L74.004 64.471l8.654 26.602L60 74.632 37.342 91.073l8.654-26.602-22.658-16.442h28.007zM23.372 58.35l12.825 9.306-4.92 15.123a36.5 36.5 0 0 1-7.905-24.429m60.431 9.306 12.825-9.306q.039.822.039 1.65a36.5 36.5 0 0 1-7.944 22.779zm-9.096-27.96-4.89-15.029c8.576 2.379 15.891 7.801 20.71 15.029zM50.183 24.667l-4.89 15.029h-15.82c4.819-7.228 12.134-12.65 20.71-15.029"/></svg>