<svg xmlns="http://www.w3.org/2000/svg" xml:space="preserve" style="fill-rule:evenodd;clip-rule:evenodd;stroke-linejoin:round;stroke-miterlimit:2" viewBox="0 0 120 120"><path d="M60 30.062c-3.917-4.972-8.304-7.86-12.481-9.314-8.927-3.108-17.883-.269-23.835 5.647-9.544 9.487-11.123 28.422-1.612 47.396C27.968 86.264 42.817 99 55.396 107.337l4.604 3.05 4.603-3.05c12.575-8.334 27.417-21.063 33.333-33.564 9.502-18.965 7.921-37.893-1.62-47.378-5.952-5.916-14.908-8.755-23.836-5.647-4.177 1.454-8.563 4.342-12.48 9.314m0 18.139C67.61 24.74 82.83 24.74 90.441 32.305c7.61 7.565 7.61 22.695 0 37.825C85.113 81.478 71.415 92.825 60 100.39c-11.415-7.565-25.114-18.912-30.441-30.26-7.61-15.13-7.61-30.26 0-37.825S52.39 24.74 60 48.201"/></svg>