<svg xmlns="http://www.w3.org/2000/svg" xml:space="preserve" style="fill-rule:evenodd;clip-rule:evenodd;stroke-linejoin:round;stroke-miterlimit:2" viewBox="0 0 120 120"><path d="m60 23.333 2.23-3.24c8.992 18.187 24.831 26.764 31.08 37.238 8.284 13.885 5.059 24.331-2.927 30.539C80.89 95.249 67.909 90.752 60 83.486c-7.909 7.266-20.89 11.763-30.383 4.384-7.986-6.208-11.211-16.654-2.927-30.539 6.249-10.474 22.088-19.051 31.08-37.238zm0 9.316c3.519 5.08 7.446 9.408 11.333 13.295 5.878 5.877 11.713 10.448 14.82 15.656 5.323 8.921 4.246 15.702-.884 19.69-6.192 4.814-14.473.798-19.632-3.941H54.363c-5.159 4.739-13.44 8.755-19.632 3.941-5.13-3.988-6.207-10.769-.884-19.69 3.107-5.208 8.942-9.779 14.82-15.656 3.887-3.887 7.814-8.215 11.333-13.295"/><path d="M60.515 35.891c1.782 23.561 6.754 46.64 10.988 69.109H48.497c4.49-22.2 9.544-45.214 11.146-69.031l.401.415zm-.421 53.826-1.398 6.95h2.731z"/></svg>