<svg xmlns="http://www.w3.org/2000/svg" xml:space="preserve" style="fill-rule:evenodd;clip-rule:evenodd;stroke-linejoin:round;stroke-miterlimit:2" viewBox="0 0 120 120"><path d="M75.361 105H44.639c4.679-9.107 9.906-26.714 12.954-36.338 1.291-4.075 3.375-4.092 4.715 0C65.431 78.2 70.966 95.817 75.361 105M60.042 88.358a293 293 0 0 1-2.892 8.309h5.825a382 382 0 0 1-2.933-8.309"/><path d="M34.177 39.723c-11.603 2.483-20.01 12.201-20.01 23.362 0 12.96 11.337 23.975 25.855 23.975 4.516 0 9.235-1.895 13.47-4.963 2.366-1.715 4.583-3.789 6.508-5.822 1.925 2.033 4.142 4.107 6.508 5.822 4.235 3.068 8.954 4.963 13.47 4.963 14.518 0 25.855-11.015 25.855-23.975 0-11.161-8.407-20.879-20.01-23.362q.032-.596.032-1.199c0-12.96-11.337-23.976-25.855-23.976S34.145 25.564 34.145 38.524q0 .603.032 1.199m12.4 8.852c-2.558-2.719-4.099-6.225-4.099-10.051 0-8.633 7.851-15.642 17.522-15.642s17.522 7.009 17.522 15.642c0 3.826-1.541 7.332-4.099 10.051a19.3 19.3 0 0 1 6.555-1.133c9.671 0 17.522 7.009 17.522 15.643 0 8.633-7.851 15.642-17.522 15.642S60 63.085 60 63.085 49.693 78.727 40.022 78.727 22.5 71.718 22.5 63.085c0-8.634 7.851-15.643 17.522-15.643 2.317 0 4.53.402 6.555 1.133"/></svg>