<svg xmlns="http://www.w3.org/2000/svg" xml:space="preserve" style="fill-rule:evenodd;clip-rule:evenodd;stroke-linejoin:round;stroke-miterlimit:2" viewBox="0 0 120 120"><path d="m44.991 87.037 14.489 3.882 9.059-33.807 13.194 8.711-13.968-34.801-29.498 23.155 15.783-.948z"/><path d="m44.991 87.037 14.489 3.882 9.059-33.807 13.194 8.711-13.968-34.801-29.498 23.155 15.783-.948zm17.022-35.609.214.261.316-.119-.17-.424zM120 120V90c-16.557 0-30 13.443-30 30z"/><path d="M112.5 0v120h7.5V0z"/><path d="M17.182 97.336 120 120 5.2 83.935C1.634 95.289 0 107.476 0 120h15c0-7.832.734-15.409 2.182-22.664"/></svg>