<svg xmlns="http://www.w3.org/2000/svg" xml:space="preserve" style="fill-rule:evenodd;clip-rule:evenodd;stroke-linejoin:round;stroke-miterlimit:2" viewBox="0 0 120 120"><path d="M120 0H90c0 16.557 13.443 30 30 30z"/><path d="M17.279 22.888C15.783 15.567 15 7.914 15 0H0c0 66.23 53.77 120 120 120v-15c-7.884 0-15.509-.777-22.811-2.264L120 0 88.335 100.542c-15.334-4.5-28.972-12.252-40.204-22.545L120 0 42.003 71.869C31.693 60.62 23.932 46.954 19.436 31.59L120 0z"/><path d="M0 120h120l-.388-.001C53.555 119.785 0 66.097 0 0z"/></svg>