<svg xmlns="http://www.w3.org/2000/svg" xml:space="preserve" style="fill-rule:evenodd;clip-rule:evenodd;stroke-linejoin:round;stroke-miterlimit:2" viewBox="0 0 120 120"><ellipse cx="60" cy="59.252" rx="15" ry="22.44"/><path d="M30 53c0-39.228 60-39.228 60 0 0 30.224-11.451 38.901-21.695 40.044-3.051.34-4.841 2.204-8.305 2.204-2.895 0-5.686-2.026-8.305-2.204C40.656 92.291 30 84.703 30 53m4.167 0c0-33.779 51.666-33.779 51.666 0 0 26.65-8.957 34.896-17.989 35.903-1.632.182-3.003.658-4.347 1.202-1.048.424-2.051.977-3.497.977-1.245 0-2.431-.637-3.612-1.083-1.499-.566-2.98-1.015-4.41-1.112-9.71-.663-17.811-7.998-17.811-35.887M60 74v4.166c-3.188 0-5.479-.371-7.176-1.332-1.965-1.114-3.504-2.935-4.336-6.453-.757-3.198-.96-8.483-.96-17.209 0-10.339 6.521-15.076 12.434-15.13 5.946-.055 12.51 4.588 12.51 14.958 0 8.68-.111 13.97-.802 17.189-.765 3.568-2.272 5.435-4.258 6.586-1.701.986-4.052 1.391-7.412 1.391zc8 0 8.305-1.386 8.305-21 0-14.484-16.61-14.351-16.61.172C51.695 72.786 52.453 74 60 74"/><path d="M120 120V20h-3l-12 39.5v30.25H90c-4.434-1.448-7.962-3.96-10.564-7.562-9.627 9.412-29.054 9.825-39.444 0-2.038 3.1-5.207 5.693-9.992 7.562H15V59.5L3 19.9H0V120z"/></svg>