<svg xmlns="http://www.w3.org/2000/svg" xml:space="preserve" style="fill-rule:evenodd;clip-rule:evenodd;stroke-linejoin:round;stroke-miterlimit:2" viewBox="0 0 120 120"><path d="m29.081 60.52 3.882 14.489 33.808-9.059-.948 15.783 23.155-29.498-34.801-13.968 8.711 13.194z"/><path d="m29.081 60.52 3.882 14.489 33.808-9.059-.948 15.783 23.155-29.498-34.801-13.968 8.711 13.194zm39.349-3.063-.119.316.261.214.282-.36zM120 120H90c0-16.557 13.443-30 30-30z"/><path d="M0 112.5h120v7.5H0z"/><path d="M97.336 17.182 120 120 83.935 5.2C95.289 1.634 107.476 0 120 0v15c-7.832 0-15.409.734-22.664 2.182"/></svg>