<svg xmlns="http://www.w3.org/2000/svg" xml:space="preserve" style="fill-rule:evenodd;clip-rule:evenodd;stroke-linejoin:round;stroke-miterlimit:2" viewBox="0 0 576 48"><path d="M576 0H0v48h576z" style="fill:#26272d"/><path d="M185.6 20v8h8v-8z" style="fill:#f3e6e6"/><path d="M185.6 20v8h8v-8zm.7.7h6.6v6.6h-6.6z"/><path d="M193.6 20v8h8v-8z" style="fill:#f3e6e6"/><path d="M193.6 20v8h8v-8zm.7.7h6.6v6.6h-6.6z"/><path d="M177.6 20v8h8v-8z" style="fill:#f3e6e6"/><path d="M177.6 20v8h8v-8zm.7.7h6.6v6.6h-6.6z"/><path d="M257.6 20v8h8v-8z" style="fill:#f3e6e6"/><path d="M257.6 20v8h8v-8zm.7.7h6.6v6.6h-6.6z"/><path d="M249.6 20v8h8v-8z" style="fill:#f3e6e6"/><path d="M249.6 20v8h8v-8zm.7.7h6.6v6.6h-6.6z"/><path d="M157.6 4h8v8l-4.16-4z" style="fill:#f3e6e6"/><path d="M157.6 4h8v8l-4.16-4zm1.642.7h5.658v5.656l-2.965-2.851z"/><path d="M149.6 4h-8v8l4.16-4z" style="fill:#f3e6e6"/><path d="M149.6 4h-8v8l4.16-4zm-1.642.7-2.693 2.805-2.965 2.851V4.7z"/><path d="M157.6 44h8v-8l-4.16 4z" style="fill:#f3e6e6"/><path d="M157.6 44h8v-8l-4.16 4zm1.642-.7 2.693-2.805 2.965-2.851V43.3z"/><path d="M149.6 44h-8v-8l4.16 4z" style="fill:#f3e6e6"/><path d="M149.6 44h-8v-8l4.16 4zm-1.642-.7H142.3v-5.656l2.965 2.851z"/><path d="M173.6 12V4h-8v8z" style="fill:#f3e6e6"/><path d="M173.6 12V4h-8v8zm-.7-.7h-6.6V4.7h6.6z"/><path d="M173.6 20v-8h-8v8z" style="fill:#f3e6e6"/><path d="M173.6 20v-8h-8v8zm-.7-.7h-6.6v-6.6h6.6z"/><path d="M173.6 44v-8h-8v8z" style="fill:#f3e6e6"/><path d="M173.6 44v-8h-8v8zm-.7-.7h-6.6v-6.6h6.6z"/><path d="M173.6 28v-8h-8v8z" style="fill:#f3e6e6"/><path d="M173.6 28v-8h-8v8zm-.7-.7h-6.6v-6.6h6.6z"/><path d="M173.6 36v-8h-8v8z" style="fill:#f3e6e6"/><path d="M173.6 36v-8h-8v8zm-.7-.7h-6.6v-6.6h6.6z"/><path d="M141.6 12V4h-8v8z" style="fill:#f3e6e6"/><path d="M141.6 12V4h-8v8zm-.7-.7h-6.6V4.7h6.6z"/><path d="M141.6 20v-8h-8v8z" style="fill:#f3e6e6"/><path d="M141.6 20v-8h-8v8zm-.7-.7h-6.6v-6.6h6.6z"/><path d="M141.6 44v-8h-8v8z" style="fill:#f3e6e6"/><path d="M141.6 44v-8h-8v8zm-.7-.7h-6.6v-6.6h6.6z"/><path d="M141.6 28v-8h-8v8z" style="fill:#f3e6e6"/><path d="M141.6 28v-8h-8v8zm-.7-.7h-6.6v-6.6h6.6z"/><path d="M141.6 36v-8h-8v8z" style="fill:#f3e6e6"/><path d="M141.6 36v-8h-8v8zm-.7-.7h-6.6v-6.6h6.6z"/><path d="M149.6 20h8v8h-8z" style="fill:#f3e6e6"/><path d="M157.6 20h-8v8h8zm-.7.7v6.6h-6.6v-6.6z"/><path d="M141.6 20h8v8h-8z" style="fill:#f3e6e6"/><path d="M149.6 20h-8v8h8zm-.7.7v6.6h-6.6v-6.6z"/><path d="M157.6 20h8v8h-8z" style="fill:#f3e6e6"/><path d="M165.6 20h-8v8h8zm-.7.7v6.6h-6.6v-6.6z"/><path d="M396 44v-8h-8l4 4.16z" style="fill:#f3e6e6"/><path d="M396 44v-8h-8l4 4.16zm-.7-1.642-2.805-2.693-2.851-2.965h5.656z"/><path d="M380 12h-8V4l4.16 4z" style="fill:#f3e6e6"/><path d="M380 12h-8V4l4.16 4zm-1.642-.7H372.7V5.644l2.965 2.851z"/><path d="M380 28h8v8l-4.16-4z" style="fill:#f3e6e6"/><path d="M380 28h8v8l-4.16-4zm1.642.7h5.658v5.656l-2.965-2.851z"/><path d="M388 20h-8v-8l4.16 4z" style="fill:#f3e6e6"/><path d="M388 20h-8v-8l4.16 4zm-1.642-.7H380.7v-5.656l2.965 2.851z"/><path d="M396 28h-8v-8l4.16 4z" style="fill:#f3e6e6"/><path d="M396 28h-8v-8l4.16 4zm-1.642-.7H388.7v-5.656l2.965 2.851z"/><path d="M404 20v-8h-8v8z" style="fill:#f3e6e6"/><path d="M404 20v-8h-8v8zm-.7-.7h-6.6v-6.6h6.6z"/><path d="M404 12V4h-8v8z" style="fill:#f3e6e6"/><path d="M404 12V4h-8v8zm-.7-.7h-6.6V4.7h6.6z"/><path d="M380 20v-8h-8v8z" style="fill:#f3e6e6"/><path d="M380 20v-8h-8v8zm-.7-.7h-6.6v-6.6h6.6z"/><path d="M372 20h8v8l-4.16-4z" style="fill:#f3e6e6"/><path d="M372 20h8v8l-4.16-4zm1.642.7h5.658v5.656l-2.965-2.851z"/><path d="M404 28v-8h-8v8z" style="fill:#f3e6e6"/><path d="M404 28v-8h-8v8zm-.7-.7h-6.6v-6.6h6.6z"/><path d="M404 36v-8h-8v8z" style="fill:#f3e6e6"/><path d="M404 36v-8h-8v8zm-.7-.7h-6.6v-6.6h6.6z"/><path d="M388 28v-8h-8v8z" style="fill:#f3e6e6"/><path d="M388 28v-8h-8v8zm-.7-.7h-6.6v-6.6h6.6z"/><path d="M372 20v-8h-8v8z" style="fill:#f3e6e6"/><path d="M372 20v-8h-8v8zm-.7-.7h-6.6v-6.6h6.6z"/><path d="M372 44v-8h-8v8z" style="fill:#f3e6e6"/><path d="M372 44v-8h-8v8zm-.7-.7h-6.6v-6.6h6.6z"/><path d="M372 28v-8h-8v8z" style="fill:#f3e6e6"/><path d="M372 28v-8h-8v8zm-.7-.7h-6.6v-6.6h6.6z"/><path d="M372 36v-8h-8v8z" style="fill:#f3e6e6"/><path d="M372 36v-8h-8v8zm-.7-.7h-6.6v-6.6h6.6z"/><path d="M388 28v8h8v-8z" style="fill:#f3e6e6"/><path d="M388 28v8h8v-8zm.7.7h6.6v6.6h-6.6z"/><path d="M396 36v8h8v-8z" style="fill:#f3e6e6"/><path d="M396 36v8h8v-8zm.7.7h6.6v6.6h-6.6z"/><path d="M372 12V4h-8v8z" style="fill:#f3e6e6"/><path d="M372 12V4h-8v8zm-.7-.7h-6.6V4.7h6.6z"/><path d="M229.6 44h8v-8l-4.16 4z" style="fill:#f3e6e6"/><path d="M229.6 44h8v-8l-4.16 4zm1.642-.7 2.693-2.805 2.965-2.851V43.3z"/><path d="M221.6 44h-8v-8l4.16 4z" style="fill:#f3e6e6"/><path d="M221.6 44h-8v-8l4.16 4zm-1.642-.7H214.3v-5.656l2.965 2.851z"/><path d="M213.6 4h8v8h-8z" style="fill:#f3e6e6"/><path d="M221.6 4h-8v8h8zm-.7.7v6.6h-6.6V4.7z"/><path d="M229.6 4h8v8h-8z" style="fill:#f3e6e6"/><path d="M237.6 4h-8v8h8zm-.7.7v6.6h-6.6V4.7z"/><path d="M221.6 4h8v8h-8z" style="fill:#f3e6e6"/><path d="M229.6 4h-8v8h8zm-.7.7v6.6h-6.6V4.7z"/><path d="M245.6 20v-8h-8v8z" style="fill:#f3e6e6"/><path d="M245.6 20v-8h-8v8zm-.7-.7h-6.6v-6.6h6.6z"/><path d="M245.6 44v-8h-8v8z" style="fill:#f3e6e6"/><path d="M245.6 44v-8h-8v8zm-.7-.7h-6.6v-6.6h6.6z"/><path d="M245.6 28v-8h-8v8z" style="fill:#f3e6e6"/><path d="M245.6 28v-8h-8v8zm-.7-.7h-6.6v-6.6h6.6z"/><path d="M245.6 36v-8h-8v8z" style="fill:#f3e6e6"/><path d="M245.6 36v-8h-8v8zm-.7-.7h-6.6v-6.6h6.6z"/><path d="M213.6 12V4l-8 8z" style="fill:#f3e6e6"/><path d="M213.6 12V4l-8 8zm-.7-.7h-5.61l5.61-5.61z"/><path d="M237.6 12V4l8 8z" style="fill:#f3e6e6"/><path d="M237.6 12V4l8 8zm.7-.7V5.69l5.61 5.61z"/><path d="M213.6 20v-8h-8v8z" style="fill:#f3e6e6"/><path d="M213.6 20v-8h-8v8zm-.7-.7h-6.6v-6.6h6.6z"/><path d="M213.6 44v-8h-8v8z" style="fill:#f3e6e6"/><path d="M213.6 44v-8h-8v8zm-.7-.7h-6.6v-6.6h6.6z"/><path d="M213.6 28v-8h-8v8z" style="fill:#f3e6e6"/><path d="M213.6 28v-8h-8v8zm-.7-.7h-6.6v-6.6h6.6z"/><path d="M213.6 36v-8h-8v8z" style="fill:#f3e6e6"/><path d="M213.6 36v-8h-8v8zm-.7-.7h-6.6v-6.6h6.6z"/><path d="M221.6 20h8v8h-8z" style="fill:#f3e6e6"/><path d="M229.6 20h-8v8h8zm-.7.7v6.6h-6.6v-6.6z"/><path d="M213.6 20h8v8h-8z" style="fill:#f3e6e6"/><path d="M221.6 20h-8v8h8zm-.7.7v6.6h-6.6v-6.6z"/><path d="M229.6 20h8v8h-8z" style="fill:#f3e6e6"/><path d="M237.6 20h-8v8h8zm-.7.7v6.6h-6.6v-6.6z"/><path d="M213.6 20v-8h8l-4 4.16z" style="fill:#f3e6e6"/><path d="M213.6 20v-8h8l-4 4.16zm.7-1.642V12.7h5.656l-2.851 2.965z"/><path d="M229.6 12h8v8l-4.16-4z" style="fill:#f3e6e6"/><path d="M229.6 12h8v8l-4.16-4zm1.642.7h5.658v5.656l-2.965-2.851z"/><path d="M130.4 12h-8V4l4.16 4z" style="fill:#f3e6e6"/><path d="M130.4 12h-8V4l4.16 4zm-1.642-.7H123.1V5.644l2.965 2.851z"/><path d="M122.4 20v-8h-8l4 4.16z" style="fill:#f3e6e6"/><path d="M122.4 20v-8h-8l4 4.16zm-.7-1.642-2.805-2.693-2.851-2.965h5.656z"/><path d="M122.4 20v-8h8l-4 4.16z" style="fill:#f3e6e6"/><path d="M122.4 20v-8h8l-4 4.16zm.7-1.642V12.7h5.656l-2.851 2.965z"/><path d="M122.4 28v8h8l-4-4.16z" style="fill:#f3e6e6"/><path d="M122.4 28v8h8l-4-4.16zm.7 1.642 2.805 2.693 2.851 2.965H123.1z"/><path d="M122.4 28v8h-8l4-4.16z" style="fill:#f3e6e6"/><path d="M122.4 28v8h-8l4-4.16zm-.7 1.642V35.3h-5.656l2.851-2.965z"/><path d="M98.4 4v8h-8l4-4.16z" style="fill:#f3e6e6"/><path d="M98.4 4v8h-8l4-4.16zm-.7 1.642V11.3h-5.656l2.851-2.965z"/><path d="M90.4 36h8v8l-4.16-4z" style="fill:#f3e6e6"/><path d="M90.4 36h8v8l-4.16-4zm1.642.7H97.7v5.656l-2.965-2.851z"/><path d="M122.4 44v-8h8l-4 4.16z" style="fill:#f3e6e6"/><path d="M122.4 44v-8h8l-4 4.16zm.7-1.642V36.7h5.656l-2.851 2.965z"/><path d="M98.4 20v-8h8l-4 4.16z" style="fill:#f3e6e6"/><path d="M98.4 20v-8h8l-4 4.16zm.7-1.642V12.7h5.656l-2.851 2.965z"/><path d="M98.4 28v8h8l-4-4.16z" style="fill:#f3e6e6"/><path d="M98.4 28v8h8l-4-4.16zm.7 1.642 2.805 2.693 2.851 2.965H99.1z"/><path d="M98.4 4h8v8h-8z" style="fill:#f3e6e6"/><path d="M106.4 4h-8v8h8zm-.7.7v6.6h-6.6V4.7z"/><path d="M106.4 4h8v8h-8z" style="fill:#f3e6e6"/><path d="M114.4 4h-8v8h8zm-.7.7v6.6h-6.6V4.7z"/><path d="M114.4 4h8v8h-8z" style="fill:#f3e6e6"/><path d="M122.4 4h-8v8h8zm-.7.7v6.6h-6.6V4.7z"/><path d="M98.4 36h8v8h-8z" style="fill:#f3e6e6"/><path d="M106.4 36h-8v8h8zm-.7.7v6.6h-6.6v-6.6z"/><path d="M106.4 36h8v8h-8z" style="fill:#f3e6e6"/><path d="M114.4 36h-8v8h8zm-.7.7v6.6h-6.6v-6.6z"/><path d="M114.4 36h8v8h-8z" style="fill:#f3e6e6"/><path d="M122.4 36h-8v8h8zm-.7.7v6.6h-6.6v-6.6z"/><path d="M90.4 28v8h8v-8z" style="fill:#f3e6e6"/><path d="M90.4 28v8h8v-8zm.7.7h6.6v6.6h-6.6z"/><path d="M90.4 20v8h8v-8z" style="fill:#f3e6e6"/><path d="M90.4 20v8h8v-8zm.7.7h6.6v6.6h-6.6z"/><path d="M90.4 12v8h8v-8z" style="fill:#f3e6e6"/><path d="M90.4 12v8h8v-8zm.7.7h6.6v6.6h-6.6z"/><path d="M415.2 20v-8h8l-4 4.16z" style="fill:#f3e6e6"/><path d="M415.2 20v-8h8l-4 4.16zm.7-1.642V12.7h5.656l-2.851 2.965z"/><path d="M439.2 20v-8h8l-4 4.16z" style="fill:#f3e6e6"/><path d="M439.2 20v-8h8l-4 4.16zm.7-1.642V12.7h5.656l-2.851 2.965z"/><path d="M423.2 36h-8v-8l4.16 4z" style="fill:#f3e6e6"/><path d="M423.2 36h-8v-8l4.16 4zm-1.642-.7H415.9v-5.656l2.965 2.851z"/><path d="M431.2 36h8v-8l-4.16 4z" style="fill:#f3e6e6"/><path d="M431.2 36h8v-8l-4.16 4zm1.642-.7 2.693-2.805 2.965-2.851V35.3z"/><path d="M431.2 20v8h8v-8z" style="fill:#f3e6e6"/><path d="M431.2 20v8h8v-8zm.7.7h6.6v6.6h-6.6z"/><path d="M439.2 20v8h8v-8z" style="fill:#f3e6e6"/><path d="M439.2 20v8h8v-8zm.7.7h6.6v6.6h-6.6z"/><path d="M447.2 12h-8V4l4.16 4z" style="fill:#f3e6e6"/><path d="M447.2 12h-8V4l4.16 4zm-1.642-.7H439.9V5.644l2.965 2.851z"/><path d="M415.2 4v8h-8l4-4.16z" style="fill:#f3e6e6"/><path d="M415.2 4v8h-8l4-4.16zm-.7 1.642V11.3h-5.656l2.851-2.965z"/><path d="M407.2 36h8v8l-4.16-4z" style="fill:#f3e6e6"/><path d="M407.2 36h8v8l-4.16-4zm1.642.7h5.658v5.656l-2.965-2.851z"/><path d="M423.2 20h8v8l-4.16-4z" style="fill:#f3e6e6"/><path d="M423.2 20h8v8l-4.16-4zm1.642.7h5.658v5.656l-2.965-2.851z"/><path d="M431.2 12h8v8l-4.16-4z" style="fill:#f3e6e6"/><path d="M431.2 12h8v8l-4.16-4zm1.642.7h5.658v5.656l-2.965-2.851z"/><path d="M439.2 44v-8h8l-4 4.16z" style="fill:#f3e6e6"/><path d="M439.2 44v-8h8l-4 4.16zm.7-1.642V36.7h5.656l-2.851 2.965z"/><path d="M415.2 4h8v8h-8z" style="fill:#f3e6e6"/><path d="M423.2 4h-8v8h8zm-.7.7v6.6h-6.6V4.7z"/><path d="M423.2 4h8v8h-8z" style="fill:#f3e6e6"/><path d="M431.2 4h-8v8h8zm-.7.7v6.6h-6.6V4.7z"/><path d="M431.2 4h8v8h-8z" style="fill:#f3e6e6"/><path d="M439.2 4h-8v8h8zm-.7.7v6.6h-6.6V4.7z"/><path d="M415.2 36h8v8h-8z" style="fill:#f3e6e6"/><path d="M423.2 36h-8v8h8zm-.7.7v6.6h-6.6v-6.6z"/><path d="M423.2 36h8v8h-8z" style="fill:#f3e6e6"/><path d="M431.2 36h-8v8h8zm-.7.7v6.6h-6.6v-6.6z"/><path d="M431.2 36h8v8h-8z" style="fill:#f3e6e6"/><path d="M439.2 36h-8v8h8zm-.7.7v6.6h-6.6v-6.6z"/><path d="M439.2 28v8h8v-8z" style="fill:#f3e6e6"/><path d="M439.2 28v8h8v-8zm.7.7h6.6v6.6h-6.6z"/><path d="M407.2 28v8h8v-8z" style="fill:#f3e6e6"/><path d="M407.2 28v8h8v-8zm.7.7h6.6v6.6h-6.6z"/><path d="M407.2 20v8h8v-8z" style="fill:#f3e6e6"/><path d="M407.2 20v8h8v-8zm.7.7h6.6v6.6h-6.6z"/><path d="M407.2 12v8h8v-8z" style="fill:#f3e6e6"/><path d="M407.2 12v8h8v-8zm.7.7h6.6v6.6h-6.6z"/><path d="M350.4 28v8h-8l4-4.16z" style="fill:#f3e6e6"/><path d="M350.4 28v8h-8l4-4.16zm-.7 1.642V35.3h-5.656l2.851-2.965z"/><path d="M326.4 28v8h8l-4-4.16z" style="fill:#f3e6e6"/><path d="M326.4 28v8h8l-4-4.16zm.7 1.642 2.805 2.693 2.851 2.965H327.1z"/><path d="M318.4 36h8v8l-4.16-4z" style="fill:#f3e6e6"/><path d="M318.4 36h8v8l-4.16-4zm1.642.7h5.658v5.656l-2.965-2.851z"/><path d="M350.4 44v-8h8l-4 4.16z" style="fill:#f3e6e6"/><path d="M350.4 44v-8h8l-4 4.16zm.7-1.642V36.7h5.656l-2.851 2.965z"/><path d="M318.4 28v8h8v-8z" style="fill:#f3e6e6"/><path d="M318.4 28v8h8v-8zm.7.7h6.6v6.6h-6.6z"/><path d="M318.4 20v8h8v-8z" style="fill:#f3e6e6"/><path d="M318.4 20v8h8v-8zm.7.7h6.6v6.6h-6.6z"/><path d="M318.4 12v8h8v-8z" style="fill:#f3e6e6"/><path d="M318.4 12v8h8v-8zm.7.7h6.6v6.6h-6.6z"/><path d="M350.4 28v8h8v-8z" style="fill:#f3e6e6"/><path d="M350.4 28v8h8v-8zm.7.7h6.6v6.6h-6.6z"/><path d="M350.4 20v8h8v-8z" style="fill:#f3e6e6"/><path d="M350.4 20v8h8v-8zm.7.7h6.6v6.6h-6.6z"/><path d="M350.4 12v8h8v-8z" style="fill:#f3e6e6"/><path d="M350.4 12v8h8v-8zm.7.7h6.6v6.6h-6.6z"/><path d="M350.4 4h8v8h-8z" style="fill:#f3e6e6"/><path d="M350.4 12h8V4h-8zm.7-.7V4.7h6.6v6.6z"/><path d="M318.4 4h8v8h-8z" style="fill:#f3e6e6"/><path d="M318.4 12h8V4h-8zm.7-.7V4.7h6.6v6.6z"/><path d="M342.4 36h8v8h-8z" style="fill:#f3e6e6"/><path d="M342.4 44h8v-8h-8zm.7-.7v-6.6h6.6v6.6z"/><path d="M334.4 36h8v8h-8z" style="fill:#f3e6e6"/><path d="M334.4 44h8v-8h-8zm.7-.7v-6.6h6.6v6.6z"/><path d="M326.4 36h8v8h-8z" style="fill:#f3e6e6"/><path d="M326.4 44h8v-8h-8zm.7-.7v-6.6h6.6v6.6z"/><path d="M55.2 12V4h-8v8z" style="fill:#f3e6e6"/><path d="M55.2 12V4h-8v8zm-.7-.7h-6.6V4.7h6.6z"/><path d="M71.2 44v-8h-8v8z" style="fill:#f3e6e6"/><path d="M71.2 44v-8h-8v8zm-.7-.7h-6.6v-6.6h6.6z"/><path d="M55.2 20v-8h-8v8z" style="fill:#f3e6e6"/><path d="M55.2 20v-8h-8v8zm-.7-.7h-6.6v-6.6h6.6z"/><path d="M87.2 12V4h-8v8z" style="fill:#f3e6e6"/><path d="M87.2 12V4h-8v8zm-.7-.7h-6.6V4.7h6.6z"/><path d="M87.2 20v-8h-8v8z" style="fill:#f3e6e6"/><path d="M87.2 20v-8h-8v8zm-.7-.7h-6.6v-6.6h6.6z"/><path d="M63.2 20h8v8h-8z" style="fill:#f3e6e6"/><path d="M71.2 20h-8v8h8zm-.7.7v6.6h-6.6v-6.6z"/><path d="M63.2 28h8v8h-8z" style="fill:#f3e6e6"/><path d="M71.2 28h-8v8h8zm-.7.7v6.6h-6.6v-6.6z"/><path d="M55.2 4h8v8h-8z" style="fill:#f3e6e6"/><path d="M63.2 4h-8v8h8zm-.7.7v6.6h-6.6V4.7z"/><path d="M63.2 12h8v8h-8z" style="fill:#f3e6e6"/><path d="M71.2 12h-8v8h8zm-.7.7v6.6h-6.6v-6.6z"/><path d="M63.2 4h8v8h-8z" style="fill:#f3e6e6"/><path d="M71.2 4h-8v8h8zm-.7.7v6.6h-6.6V4.7z"/><path d="M71.2 4h8v8h-8z" style="fill:#f3e6e6"/><path d="M79.2 4h-8v8h8zm-.7.7v6.6h-6.6V4.7z"/><path d="M458.4 4h8v8h-8z" style="fill:#f3e6e6"/><path d="M466.4 4h-8v8h8zm-.7.7v6.6h-6.6V4.7z"/><path d="M490.4 4h-8v8l4.16-4z" style="fill:#f3e6e6"/><path d="M490.4 4h-8v8l4.16-4zm-1.642.7-2.693 2.805-2.965 2.851V4.7z"/><path d="M490.4 44h-8v-8l4.16 4z" style="fill:#f3e6e6"/><path d="M490.4 44h-8v-8l4.16 4zm-1.642-.7H483.1v-5.656l2.965 2.851z"/><path d="M466.4 4h8v8h-8z" style="fill:#f3e6e6"/><path d="M474.4 4h-8v8h8zm-.7.7v6.6h-6.6V4.7z"/><path d="M474.4 4h8v8h-8z" style="fill:#f3e6e6"/><path d="M482.4 4h-8v8h8zm-.7.7v6.6h-6.6V4.7z"/><path d="M458.4 36h8v8h-8z" style="fill:#f3e6e6"/><path d="M466.4 36h-8v8h8zm-.7.7v6.6h-6.6v-6.6z"/><path d="M450.4 36h8v8h-8z" style="fill:#f3e6e6"/><path d="M458.4 36h-8v8h8zm-.7.7v6.6h-6.6v-6.6z"/><path d="M450.4 20h8v8h-8z" style="fill:#f3e6e6"/><path d="M458.4 20h-8v8h8zm-.7.7v6.6h-6.6v-6.6z"/><path d="M450.4 4h8v8h-8z" style="fill:#f3e6e6"/><path d="M458.4 4h-8v8h8zm-.7.7v6.6h-6.6V4.7z"/><path d="M466.4 36h8v8h-8z" style="fill:#f3e6e6"/><path d="M474.4 36h-8v8h8zm-.7.7v6.6h-6.6v-6.6z"/><path d="M474.4 36h8v8h-8z" style="fill:#f3e6e6"/><path d="M482.4 36h-8v8h8zm-.7.7v6.6h-6.6v-6.6z"/><path d="M466.4 20v8h8v-8z" style="fill:#f3e6e6"/><path d="M466.4 20v8h8v-8zm.7.7h6.6v6.6h-6.6z"/><path d="M450.4 28v8h8v-8z" style="fill:#f3e6e6"/><path d="M450.4 28v8h8v-8zm.7.7h6.6v6.6h-6.6z"/><path d="M458.4 20v8h8v-8z" style="fill:#f3e6e6"/><path d="M458.4 20v8h8v-8zm.7.7h6.6v6.6h-6.6z"/><path d="M450.4 12v8h8v-8z" style="fill:#f3e6e6"/><path d="M450.4 12v8h8v-8zm.7.7h6.6v6.6h-6.6z"/><path d="M12 4h8v8h-8z" style="fill:#f3e6e6"/><path d="M20 4h-8v8h8zm-.7.7v6.6h-6.6V4.7z"/><path d="M44 4h-8v8l4.16-4z" style="fill:#f3e6e6"/><path d="M44 4h-8v8l4.16-4zm-1.642.7-2.693 2.805-2.965 2.851V4.7z"/><path d="M44 44h-8v-8l4.16 4z" style="fill:#f3e6e6"/><path d="M44 44h-8v-8l4.16 4zm-1.642-.7H36.7v-5.656l2.965 2.851z"/><path d="M20 4h8v8h-8z" style="fill:#f3e6e6"/><path d="M28 4h-8v8h8zm-.7.7v6.6h-6.6V4.7z"/><path d="M28 4h8v8h-8z" style="fill:#f3e6e6"/><path d="M36 4h-8v8h8zm-.7.7v6.6h-6.6V4.7z"/><path d="M12 36h8v8h-8z" style="fill:#f3e6e6"/><path d="M20 36h-8v8h8zm-.7.7v6.6h-6.6v-6.6z"/><path d="M4 36h8v8H4z" style="fill:#f3e6e6"/><path d="M12 36H4v8h8zm-.7.7v6.6H4.7v-6.6z"/><path d="M4 20h8v8H4z" style="fill:#f3e6e6"/><path d="M12 20H4v8h8zm-.7.7v6.6H4.7v-6.6z"/><path d="M4 4h8v8H4z" style="fill:#f3e6e6"/><path d="M12 4H4v8h8zm-.7.7v6.6H4.7V4.7z"/><path d="M20 36h8v8h-8z" style="fill:#f3e6e6"/><path d="M28 36h-8v8h8zm-.7.7v6.6h-6.6v-6.6z"/><path d="M28 36h8v8h-8z" style="fill:#f3e6e6"/><path d="M36 36h-8v8h8zm-.7.7v6.6h-6.6v-6.6z"/><path d="M20 20v8h8v-8z" style="fill:#f3e6e6"/><path d="M20 20v8h8v-8zm.7.7h6.6v6.6h-6.6z"/><path d="M4 28v8h8v-8z" style="fill:#f3e6e6"/><path d="M4 28v8h8v-8zm.7.7h6.6v6.6H4.7z"/><path d="M12 20v8h8v-8z" style="fill:#f3e6e6"/><path d="M12 20v8h8v-8zm.7.7h6.6v6.6h-6.6z"/><path d="M4 12v8h8v-8z" style="fill:#f3e6e6"/><path d="M4 12v8h8v-8zm.7.7h6.6v6.6H4.7z"/><path d="M270.8 44h8.8v-8l-4.576 4z" style="fill:#f3e6e6"/><path d="M270.8 44h8.8v-8l-4.576 4zm1.757-.7 2.938-2.782 3.405-2.976V43.3z"/><path d="M270.8 4h8.8v8l-4.576-4z" style="fill:#f3e6e6"/><path d="M270.8 4h8.8v8l-4.576-4zm1.757.7h6.343v5.758l-3.405-2.976z"/><path d="M306 28v8h-8.8l4.4-4.16z" style="fill:#f3e6e6"/><path d="M306 28v8h-8.8l4.4-4.16zm-.7 1.54v5.76h-6.341l3.112-2.942z"/><path d="M306 20v-8h-8.8l4.4 4.16z" style="fill:#f3e6e6"/><path d="M306 20v-8h-8.8l4.4 4.16zm-.7-1.54-3.229-2.818-3.112-2.942h6.341z"/><path d="M314.8 20v-8H306v8z" style="fill:#f3e6e6"/><path d="M314.8 20v-8H306v8zm-.7-.7h-7.4v-6.6h7.4z"/><path d="M314.8 36v-8H306v8z" style="fill:#f3e6e6"/><path d="M314.8 36v-8H306v8zm-.7-.7h-7.4v-6.6h7.4z"/><path d="M314.8 28v-8H306v8z" style="fill:#f3e6e6"/><path d="M314.8 28v-8H306v8zm-.7-.7h-7.4v-6.6h7.4z"/><path d="M297.2 36h8.8v8h-8.8z" style="fill:#f3e6e6"/><path d="M297.2 44h8.8v-8h-8.8zm.7-.7v-6.6h7.4v6.6z"/><path d="M288.4 36h8.8v8h-8.8z" style="fill:#f3e6e6"/><path d="M288.4 44h8.8v-8h-8.8zm.7-.7v-6.6h7.4v6.6z"/><path d="M279.6 36h8.8v8h-8.8z" style="fill:#f3e6e6"/><path d="M279.6 44h8.8v-8h-8.8zm.7-.7v-6.6h7.4v6.6z"/><path d="M306 12h8.8L306 4z" style="fill:#f3e6e6"/><path d="M306 12h8.8L306 4zm.7-.7V5.582l6.289 5.718z"/><path d="M306 36h8.8l-8.8 8z" style="fill:#f3e6e6"/><path d="M306 36h8.8l-8.8 8zm.7.7h6.289l-6.289 5.718z"/><path d="M297.2 4h8.8v8h-8.8z" style="fill:#f3e6e6"/><path d="M297.2 12h8.8V4h-8.8zm.7-.7V4.7h7.4v6.6z"/><path d="M288.4 4h8.8v8h-8.8z" style="fill:#f3e6e6"/><path d="M288.4 12h8.8V4h-8.8zm.7-.7V4.7h7.4v6.6z"/><path d="M279.6 4h8.8v8h-8.8z" style="fill:#f3e6e6"/><path d="M279.6 12h8.8V4h-8.8zm.7-.7V4.7h7.4v6.6z"/><path d="M288.4 28v-8h-8.8v8z" style="fill:#f3e6e6"/><path d="M288.4 28v-8h-8.8v8zm-.7-.7h-7.4v-6.6h7.4z"/><path d="M288.4 20v-8h-8.8v8z" style="fill:#f3e6e6"/><path d="M288.4 20v-8h-8.8v8zm-.7-.7h-7.4v-6.6h7.4z"/><path d="M288.4 36v-8h-8.8v8z" style="fill:#f3e6e6"/><path d="M288.4 36v-8h-8.8v8zm-.7-.7h-7.4v-6.6h7.4z"/><path d="M265.6 20v8h8v-8z" style="fill:#f3e6e6"/><path d="M265.6 20v8h8v-8zm.7.7h6.6v6.6h-6.6z"/><path d="M528 12h-8V4l4.16 4z" style="fill:#f3e6e6"/><path d="M528 12h-8V4l4.16 4zm-1.642-.7H520.7V5.644l2.965 2.851z"/><path d="M496 4v8h-8l4-4.16z" style="fill:#f3e6e6"/><path d="M496 4v8h-8l4-4.16zm-.7 1.642V11.3h-5.656l2.851-2.965z"/><path d="M488 36h8v8l-4.16-4z" style="fill:#f3e6e6"/><path d="M488 36h8v8l-4.16-4zm1.642.7h5.658v5.656l-2.965-2.851z"/><path d="M520 44v-8h8l-4 4.16z" style="fill:#f3e6e6"/><path d="M520 44v-8h8l-4 4.16zm.7-1.642V36.7h5.656l-2.851 2.965z"/><path d="M496 4h8v8h-8z" style="fill:#f3e6e6"/><path d="M504 4h-8v8h8zm-.7.7v6.6h-6.6V4.7z"/><path d="M504 4h8v8h-8z" style="fill:#f3e6e6"/><path d="M512 4h-8v8h8zm-.7.7v6.6h-6.6V4.7z"/><path d="M512 4h8v8h-8z" style="fill:#f3e6e6"/><path d="M520 4h-8v8h8zm-.7.7v6.6h-6.6V4.7z"/><path d="M496 36h8v8h-8z" style="fill:#f3e6e6"/><path d="M504 36h-8v8h8zm-.7.7v6.6h-6.6v-6.6z"/><path d="M504 36h8v8h-8z" style="fill:#f3e6e6"/><path d="M512 36h-8v8h8zm-.7.7v6.6h-6.6v-6.6z"/><path d="M512 36h8v8h-8z" style="fill:#f3e6e6"/><path d="M520 36h-8v8h8zm-.7.7v6.6h-6.6v-6.6z"/><path d="M520 28v8h8v-8z" style="fill:#f3e6e6"/><path d="M520 28v8h8v-8zm.7.7h6.6v6.6h-6.6z"/><path d="M520 12v8h8v-8z" style="fill:#f3e6e6"/><path d="M520 12v8h8v-8zm.7.7h6.6v6.6h-6.6z"/><path d="M520 20v8h8v-8z" style="fill:#f3e6e6"/><path d="M520 20v8h8v-8zm.7.7h6.6v6.6h-6.6z"/><path d="M488 28v8h8v-8z" style="fill:#f3e6e6"/><path d="M488 28v8h8v-8zm.7.7h6.6v6.6h-6.6z"/><path d="M488 20v8h8v-8z" style="fill:#f3e6e6"/><path d="M488 20v8h8v-8zm.7.7h6.6v6.6h-6.6z"/><path d="M488 12v8h8v-8z" style="fill:#f3e6e6"/><path d="M488 12v8h8v-8zm.7.7h6.6v6.6h-6.6z"/><path d="M504 36h-8v-8l4.16 4z" style="fill:#f3e6e6"/><path d="M504 36h-8v-8l4.16 4zm-1.642-.7H496.7v-5.656l2.965 2.851z"/><path d="M496 20v-8h8l-4 4.16z" style="fill:#f3e6e6"/><path d="M496 20v-8h8l-4 4.16zm.7-1.642V12.7h5.656l-2.851 2.965z"/><path d="M512 36h8v-8l-4.16 4z" style="fill:#f3e6e6"/><path d="M512 36h8v-8l-4.16 4zm1.642-.7 2.693-2.805 2.965-2.851V35.3z"/><path d="M520 20v-8h-8l4 4.16z" style="fill:#f3e6e6"/><path d="M520 20v-8h-8l4 4.16zm-.7-1.642-2.805-2.693-2.851-2.965h5.656z"/><path d="M564 44v-8h-8l4 4.16z" style="fill:#f3e6e6"/><path d="M564 44v-8h-8l4 4.16zm-.7-1.642-2.805-2.693-2.851-2.965h5.656z"/><path d="M548 12h-8V4l4.16 4z" style="fill:#f3e6e6"/><path d="M548 12h-8V4l4.16 4zm-1.642-.7H540.7V5.644l2.965 2.851z"/><path d="M548 28h8v8l-4.16-4z" style="fill:#f3e6e6"/><path d="M548 28h8v8l-4.16-4zm1.642.7h5.658v5.656l-2.965-2.851z"/><path d="M556 20h-8v-8l4.16 4z" style="fill:#f3e6e6"/><path d="M556 20h-8v-8l4.16 4zm-1.642-.7H548.7v-5.656l2.965 2.851z"/><path d="M564 28h-8v-8l4.16 4z" style="fill:#f3e6e6"/><path d="M564 28h-8v-8l4.16 4zm-1.642-.7H556.7v-5.656l2.965 2.851z"/><path d="M572 20v-8h-8v8z" style="fill:#f3e6e6"/><path d="M572 20v-8h-8v8zm-.7-.7h-6.6v-6.6h6.6z"/><path d="M572 12V4h-8v8z" style="fill:#f3e6e6"/><path d="M572 12V4h-8v8zm-.7-.7h-6.6V4.7h6.6z"/><path d="M548 20v-8h-8v8z" style="fill:#f3e6e6"/><path d="M548 20v-8h-8v8zm-.7-.7h-6.6v-6.6h6.6z"/><path d="M540 20h8v8l-4.16-4z" style="fill:#f3e6e6"/><path d="M540 20h8v8l-4.16-4zm1.642.7h5.658v5.656l-2.965-2.851z"/><path d="M572 28v-8h-8v8z" style="fill:#f3e6e6"/><path d="M572 28v-8h-8v8zm-.7-.7h-6.6v-6.6h6.6z"/><path d="M572 36v-8h-8v8z" style="fill:#f3e6e6"/><path d="M572 36v-8h-8v8zm-.7-.7h-6.6v-6.6h6.6z"/><path d="M556 28v-8h-8v8z" style="fill:#f3e6e6"/><path d="M556 28v-8h-8v8zm-.7-.7h-6.6v-6.6h6.6z"/><path d="M540 20v-8h-8v8z" style="fill:#f3e6e6"/><path d="M540 20v-8h-8v8zm-.7-.7h-6.6v-6.6h6.6z"/><path d="M540 44v-8h-8v8z" style="fill:#f3e6e6"/><path d="M540 44v-8h-8v8zm-.7-.7h-6.6v-6.6h6.6z"/><path d="M540 28v-8h-8v8z" style="fill:#f3e6e6"/><path d="M540 28v-8h-8v8zm-.7-.7h-6.6v-6.6h6.6z"/><path d="M540 36v-8h-8v8z" style="fill:#f3e6e6"/><path d="M540 36v-8h-8v8zm-.7-.7h-6.6v-6.6h6.6z"/><path d="M556 28v8h8v-8z" style="fill:#f3e6e6"/><path d="M556 28v8h8v-8zm.7.7h6.6v6.6h-6.6z"/><path d="M564 36v8h8v-8z" style="fill:#f3e6e6"/><path d="M564 36v8h8v-8zm.7.7h6.6v6.6h-6.6z"/><path d="M540 12V4h-8v8z" style="fill:#f3e6e6"/><path d="M540 12V4h-8v8zm-.7-.7h-6.6V4.7h6.6z"/></svg>